<svg xmlns="http://www.w3.org/2000/svg" xmlns:xlink="http://www.w3.org/1999/xlink" width="1920" zoomAndPan="magnify" viewBox="0 0 1440 809.999993" height="1080" preserveAspectRatio="xMidYMid meet" version="1.0"><defs><clipPath id="cbd1c66202"><path d="M 88 166.949219 L 239 166.949219 L 239 339 L 88 339 Z M 88 166.949219 " clip-rule="nonzero"/></clipPath><clipPath id="6b7197859e"><path d="M 263 166.949219 L 415 166.949219 L 415 339 L 263 339 Z M 263 166.949219 " clip-rule="nonzero"/></clipPath><clipPath id="9390bcaaf1"><path d="M 263 471 L 415 471 L 415 643.199219 L 263 643.199219 Z M 263 471 " clip-rule="nonzero"/></clipPath><clipPath id="c0f525955b"><path d="M 88 471 L 239 471 L 239 643.199219 L 88 643.199219 Z M 88 471 " clip-rule="nonzero"/></clipPath></defs><path fill="#862fff" d="M 163.351562 175.695312 L 229.957031 214.167969 L 229.957031 291.117188 L 163.351562 329.589844 L 96.734375 291.117188 L 96.734375 214.160156 Z M 163.351562 175.695312 " fill-opacity="1" fill-rule="nonzero"/><g clip-path="url(#cbd1c66202)"><path stroke-linecap="butt" transform="matrix(0.812604, 0, 0, 0.812864, 0.00000622222, 166.982956)" fill="none" stroke-linejoin="round" d="M 201.022236 10.718093 L 282.987664 58.047827 L 282.987664 152.712101 L 201.022236 200.041835 L 119.042386 152.712101 L 119.042386 58.038216 Z M 201.022236 10.718093 " stroke="#862fff" stroke-width="21.43" stroke-opacity="1" stroke-miterlimit="4"/></g><path fill="#862fff" d="M 339.246094 175.695312 L 405.863281 214.167969 L 405.863281 291.117188 L 339.246094 329.589844 L 272.636719 291.117188 L 272.636719 214.160156 L 339.246094 175.6875 Z M 339.246094 175.695312 " fill-opacity="1" fill-rule="nonzero"/><g clip-path="url(#6b7197859e)"><path stroke-linecap="butt" transform="matrix(0.812604, 0, 0, 0.812864, 0.00000622222, 166.982956)" fill="none" stroke-linejoin="round" d="M 417.479995 10.718093 L 499.459845 58.047827 L 499.459845 152.712101 L 417.479995 200.041835 L 335.50976 152.712101 L 335.50976 58.038216 L 417.479995 10.708482 Z M 417.479995 10.718093 " stroke="#862fff" stroke-width="21.43" stroke-opacity="1" stroke-miterlimit="4"/></g><path stroke-linecap="butt" transform="matrix(0.812604, 0, 0, 0.812864, 0.00000622222, 166.982956)" fill-opacity="1" fill="#862fff" fill-rule="nonzero" stroke-linejoin="round" d="M 525.797806 198.249369 L 607.777656 245.579103 L 607.777656 340.238572 L 525.797806 387.568306 L 443.817957 340.238572 L 443.817957 245.579103 Z M 525.797806 198.249369 " stroke="#862fff" stroke-width="21.43" stroke-opacity="1" stroke-miterlimit="4"/><path stroke-linecap="butt" transform="matrix(0.812604, 0, 0, 0.812864, 0.00000622222, 166.982956)" fill-opacity="1" fill="#862fff" fill-rule="nonzero" stroke-linejoin="round" d="M 92.699618 198.249369 L 174.679467 245.579103 L 174.679467 340.238572 L 92.699618 387.568306 L 10.719769 340.238572 L 10.719769 245.579103 Z M 92.699618 198.249369 " stroke="#862fff" stroke-width="21.43" stroke-opacity="1" stroke-miterlimit="4"/><path fill="#862fff" d="M 339.246094 480.570312 L 405.863281 519.042969 L 405.863281 595.988281 L 339.246094 634.460938 L 272.636719 595.988281 L 272.636719 519.042969 Z M 339.246094 480.570312 " fill-opacity="1" fill-rule="nonzero"/><g clip-path="url(#9390bcaaf1)"><path stroke-linecap="butt" transform="matrix(0.812604, 0, 0, 0.812864, 0.00000622222, 166.982956)" fill="none" stroke-linejoin="round" d="M 417.479995 385.780646 L 499.459845 433.11038 L 499.459845 527.769848 L 417.479995 575.099582 L 335.50976 527.769848 L 335.50976 433.11038 Z M 417.479995 385.780646 " stroke="#862fff" stroke-width="21.43" stroke-opacity="1" stroke-miterlimit="4"/></g><path fill="#862fff" d="M 163.351562 480.570312 L 229.957031 519.042969 L 229.957031 595.988281 L 163.351562 634.460938 L 96.734375 595.988281 L 96.734375 519.042969 Z M 163.351562 480.570312 " fill-opacity="1" fill-rule="nonzero"/><g clip-path="url(#c0f525955b)"><path stroke-linecap="butt" transform="matrix(0.812604, 0, 0, 0.812864, 0.00000622222, 166.982956)" fill="none" stroke-linejoin="round" d="M 201.022236 385.780646 L 282.987664 433.11038 L 282.987664 527.769848 L 201.022236 575.099582 L 119.042386 527.769848 L 119.042386 433.11038 Z M 201.022236 385.780646 " stroke="#862fff" stroke-width="21.43" stroke-opacity="1" stroke-miterlimit="4"/></g><path stroke-linecap="butt" transform="matrix(0.812604, 0, 0, 0.812864, 0.00000622222, 166.982956)" fill-opacity="1" fill="#ff9fab" fill-rule="nonzero" stroke-linejoin="round" d="M 309.248712 198.249369 L 391.228561 245.579103 L 391.228561 340.238572 L 309.248712 387.568306 L 227.268863 340.238572 L 227.268863 245.579103 Z M 309.248712 198.249369 " stroke="#ff9fab" stroke-width="21.43" stroke-opacity="1" stroke-miterlimit="4"/><path fill="#ffffff" d="M 240.375 388.023438 C 240.726562 388.886719 241.042969 389.757812 241.328125 390.632812 C 241.613281 391.511719 241.863281 392.398438 242.082031 393.292969 C 242.300781 394.1875 242.488281 395.082031 242.644531 395.976562 C 242.796875 396.867188 242.910156 397.761719 243 398.648438 C 243.082031 399.542969 243.140625 400.421875 243.15625 401.300781 C 243.171875 402.175781 243.15625 403.039062 243.097656 403.890625 C 243.042969 404.746094 242.953125 405.582031 242.832031 406.402344 C 242.707031 407.234375 242.554688 408.039062 242.359375 408.816406 C 242.164062 409.597656 241.945312 410.363281 241.683594 411.101562 C 241.433594 411.84375 241.140625 412.550781 240.824219 413.238281 C 240.507812 413.929688 240.15625 414.582031 239.773438 415.207031 C 239.394531 415.832031 238.988281 416.425781 238.546875 416.988281 C 238.109375 417.546875 237.644531 418.070312 237.160156 418.554688 C 236.671875 419.042969 236.160156 419.5 235.613281 419.90625 C 235.078125 420.320312 234.519531 420.695312 233.941406 421.027344 C 233.363281 421.359375 232.761719 421.652344 232.144531 421.898438 C 231.527344 422.140625 230.894531 422.351562 230.25 422.523438 C 229.601562 422.6875 228.941406 422.808594 228.269531 422.878906 C 227.59375 422.953125 226.910156 422.996094 226.222656 422.976562 C 225.53125 422.96875 224.832031 422.914062 224.132812 422.816406 C 223.433594 422.710938 222.726562 422.570312 222.019531 422.386719 C 221.3125 422.199219 220.605469 421.96875 219.898438 421.703125 C 219.191406 421.433594 218.492188 421.117188 217.792969 420.765625 C 217.09375 420.417969 216.40625 420.019531 215.722656 419.589844 C 215.039062 419.15625 214.363281 418.6875 213.714844 418.183594 C 213.058594 417.671875 212.40625 417.132812 211.773438 416.558594 C 211.140625 415.980469 210.53125 415.371094 209.929688 414.734375 C 209.328125 414.09375 208.75 413.425781 208.199219 412.726562 C 207.636719 412.027344 207.109375 411.304688 206.597656 410.558594 C 206.085938 409.808594 205.597656 409.03125 205.132812 408.242188 C 204.671875 407.445312 204.238281 406.632812 203.832031 405.800781 C 203.425781 404.972656 203.054688 404.128906 202.703125 403.265625 C 202.355469 402.40625 202.039062 401.535156 201.753906 400.65625 C 201.46875 399.777344 201.21875 398.894531 200.996094 398 C 200.777344 397.105469 200.589844 396.210938 200.4375 395.316406 C 200.28125 394.421875 200.160156 393.527344 200.078125 392.632812 C 200 391.738281 199.949219 390.863281 199.933594 389.984375 C 199.917969 389.105469 199.933594 388.246094 199.988281 387.390625 C 200.039062 386.539062 200.128906 385.699219 200.25 384.878906 C 200.371094 384.058594 200.535156 383.253906 200.722656 382.472656 C 200.910156 381.691406 201.136719 380.929688 201.386719 380.1875 C 201.648438 379.449219 201.933594 378.734375 202.257812 378.050781 C 202.574219 377.367188 202.921875 376.710938 203.304688 376.085938 C 203.6875 375.457031 204.09375 374.871094 204.53125 374.3125 C 204.972656 373.75 205.425781 373.230469 205.921875 372.742188 C 206.410156 372.253906 206.921875 371.800781 207.464844 371.394531 C 208.003906 370.980469 208.5625 370.605469 209.140625 370.273438 C 209.71875 369.9375 210.320312 369.644531 210.9375 369.402344 C 211.554688 369.152344 212.1875 368.945312 212.835938 368.777344 C 213.488281 368.605469 214.144531 368.492188 214.820312 368.417969 C 215.496094 368.347656 216.175781 368.304688 216.867188 368.3125 C 217.558594 368.328125 218.257812 368.378906 218.957031 368.476562 C 219.664062 368.582031 220.363281 368.71875 221.070312 368.90625 C 221.785156 369.09375 222.484375 369.320312 223.191406 369.589844 C 223.898438 369.859375 224.597656 370.175781 225.292969 370.523438 C 225.992188 370.875 226.675781 371.273438 227.367188 371.703125 C 228.050781 372.132812 228.714844 372.597656 229.375 373.109375 C 230.03125 373.621094 230.675781 374.15625 231.316406 374.734375 C 231.949219 375.3125 232.558594 375.914062 233.160156 376.554688 C 233.753906 377.199219 234.332031 377.863281 234.890625 378.5625 C 235.453125 379.261719 235.980469 379.992188 236.492188 380.742188 C 237.003906 381.488281 237.484375 382.261719 237.945312 383.058594 C 238.410156 383.855469 238.839844 384.667969 239.246094 385.496094 C 239.644531 386.328125 240.027344 387.171875 240.375 388.035156 Z M 240.375 388.023438 " fill-opacity="1" fill-rule="nonzero"/><path fill="#ffffff" d="M 299.882812 403.25 C 299.535156 404.113281 299.160156 404.957031 298.753906 405.785156 C 298.347656 406.617188 297.917969 407.429688 297.453125 408.226562 C 296.992188 409.011719 296.503906 409.792969 295.992188 410.542969 C 295.480469 411.289062 294.941406 412.011719 294.390625 412.710938 C 293.835938 413.410156 293.261719 414.085938 292.660156 414.71875 C 292.066406 415.363281 291.449219 415.972656 290.816406 416.539062 C 290.179688 417.109375 289.539062 417.664062 288.871094 418.167969 C 288.214844 418.671875 287.539062 419.140625 286.867188 419.574219 C 286.191406 420.003906 285.492188 420.402344 284.792969 420.75 C 284.09375 421.101562 283.394531 421.417969 282.6875 421.6875 C 281.980469 421.953125 281.273438 422.183594 280.566406 422.367188 C 279.859375 422.554688 279.152344 422.695312 278.457031 422.800781 C 277.757812 422.898438 277.058594 422.953125 276.367188 422.960938 C 275.675781 422.976562 274.992188 422.9375 274.320312 422.863281 C 273.644531 422.792969 272.988281 422.667969 272.335938 422.507812 C 271.6875 422.34375 271.058594 422.132812 270.441406 421.882812 C 269.824219 421.628906 269.230469 421.34375 268.648438 421.011719 C 268.070312 420.679688 267.5 420.3125 266.972656 419.890625 C 266.4375 419.476562 265.917969 419.027344 265.429688 418.539062 C 264.941406 418.050781 264.46875 417.53125 264.039062 416.972656 C 263.609375 416.410156 263.195312 415.816406 262.8125 415.191406 C 262.429688 414.566406 262.082031 413.914062 261.765625 413.222656 C 261.4375 412.542969 261.15625 411.824219 260.902344 411.085938 C 260.644531 410.347656 260.421875 409.589844 260.226562 408.800781 C 260.035156 408.011719 259.878906 407.21875 259.757812 406.386719 C 259.636719 405.566406 259.546875 404.730469 259.488281 403.875 C 259.433594 403.023438 259.414062 402.160156 259.433594 401.28125 C 259.449219 400.40625 259.496094 399.527344 259.585938 398.632812 C 259.667969 397.746094 259.789062 396.851562 259.945312 395.957031 C 260.097656 395.066406 260.285156 394.171875 260.503906 393.277344 C 260.722656 392.382812 260.976562 391.496094 261.261719 390.617188 C 261.546875 389.742188 261.863281 388.871094 262.210938 388.007812 C 262.5625 387.148438 262.941406 386.300781 263.339844 385.472656 C 263.746094 384.644531 264.1875 383.832031 264.640625 383.035156 C 265.097656 382.238281 265.582031 381.464844 266.09375 380.71875 C 266.609375 379.96875 267.144531 379.238281 267.695312 378.539062 C 268.25 377.839844 268.835938 377.171875 269.425781 376.53125 C 270.019531 375.890625 270.636719 375.28125 271.273438 374.710938 C 271.90625 374.132812 272.546875 373.589844 273.214844 373.085938 C 273.878906 372.582031 274.546875 372.109375 275.222656 371.679688 C 275.902344 371.246094 276.59375 370.847656 277.292969 370.5 C 277.992188 370.148438 278.691406 369.832031 279.398438 369.566406 C 280.105469 369.296875 280.8125 369.070312 281.519531 368.882812 C 282.226562 368.695312 282.925781 368.558594 283.632812 368.453125 C 284.332031 368.355469 285.027344 368.296875 285.71875 368.289062 C 286.410156 368.28125 287.09375 368.3125 287.769531 368.394531 C 288.441406 368.476562 289.101562 368.589844 289.75 368.753906 C 290.402344 368.914062 291.035156 369.125 291.652344 369.378906 C 292.269531 369.621094 292.863281 369.914062 293.449219 370.246094 C 294.023438 370.582031 294.585938 370.945312 295.121094 371.371094 C 295.65625 371.785156 296.171875 372.230469 296.664062 372.71875 C 297.152344 373.207031 297.617188 373.726562 298.054688 374.289062 C 298.492188 374.847656 298.898438 375.441406 299.28125 376.058594 C 299.664062 376.6875 300.011719 377.34375 300.332031 378.027344 C 300.65625 378.710938 300.941406 379.417969 301.199219 380.164062 C 301.453125 380.90625 301.679688 381.660156 301.867188 382.449219 C 302.054688 383.238281 302.214844 384.035156 302.335938 384.855469 C 302.460938 385.683594 302.550781 386.519531 302.597656 387.367188 C 302.65625 388.21875 302.671875 389.082031 302.65625 389.960938 C 302.636719 390.835938 302.589844 391.714844 302.507812 392.609375 C 302.425781 393.503906 302.304688 394.390625 302.152344 395.292969 C 301.996094 396.1875 301.808594 397.082031 301.589844 397.976562 C 301.371094 398.859375 301.117188 399.753906 300.835938 400.632812 C 300.550781 401.511719 300.234375 402.386719 299.882812 403.242188 Z M 299.882812 403.25 " fill-opacity="1" fill-rule="nonzero"/><path fill="#ffffff" d="M 272.335938 423.945312 C 272.335938 425.15625 272.304688 426.367188 272.230469 427.570312 C 272.15625 428.773438 272.058594 429.976562 271.929688 431.164062 C 271.792969 432.351562 271.621094 433.53125 271.425781 434.691406 C 271.230469 435.855469 270.996094 436.992188 270.734375 438.105469 C 270.46875 439.226562 270.175781 440.324219 269.851562 441.390625 C 269.523438 442.460938 269.175781 443.496094 268.785156 444.503906 C 268.402344 445.511719 267.996094 446.488281 267.558594 447.421875 C 267.121094 448.363281 266.65625 449.257812 266.167969 450.113281 C 265.679688 450.972656 265.167969 451.785156 264.632812 452.558594 C 264.097656 453.324219 263.550781 454.046875 262.976562 454.722656 C 262.40625 455.394531 261.8125 456.011719 261.203125 456.589844 C 260.59375 457.160156 259.96875 457.679688 259.335938 458.144531 C 258.691406 458.605469 258.050781 459.011719 257.382812 459.371094 C 256.726562 459.71875 256.058594 460.019531 255.386719 460.25 C 254.710938 460.484375 254.027344 460.664062 253.335938 460.785156 C 252.648438 460.90625 251.964844 460.964844 251.273438 460.964844 C 250.582031 460.964844 249.898438 460.90625 249.210938 460.785156 C 248.519531 460.664062 247.84375 460.492188 247.160156 460.25 C 246.488281 460.011719 245.8125 459.71875 245.164062 459.371094 C 244.503906 459.019531 243.855469 458.605469 243.210938 458.144531 C 242.578125 457.679688 241.953125 457.160156 241.34375 456.589844 C 240.734375 456.019531 240.148438 455.394531 239.570312 454.722656 C 238.996094 454.046875 238.441406 453.324219 237.914062 452.558594 C 237.378906 451.785156 236.867188 450.972656 236.378906 450.113281 C 235.890625 449.257812 235.429688 448.355469 234.988281 447.421875 C 234.550781 446.488281 234.144531 445.511719 233.761719 444.503906 C 233.378906 443.496094 233.023438 442.453125 232.699219 441.390625 C 232.371094 440.324219 232.078125 439.226562 231.8125 438.105469 C 231.550781 436.984375 231.316406 435.847656 231.121094 434.691406 C 230.925781 433.53125 230.753906 432.351562 230.617188 431.164062 C 230.488281 429.976562 230.382812 428.773438 230.316406 427.570312 C 230.25 426.367188 230.210938 425.15625 230.210938 423.945312 C 230.210938 422.734375 230.242188 421.523438 230.316406 420.320312 C 230.390625 419.117188 230.488281 417.914062 230.617188 416.726562 C 230.753906 415.539062 230.925781 414.363281 231.121094 413.207031 C 231.316406 412.054688 231.550781 410.90625 231.8125 409.785156 C 232.078125 408.664062 232.371094 407.574219 232.699219 406.5 C 233.023438 405.4375 233.371094 404.394531 233.761719 403.386719 C 234.144531 402.378906 234.550781 401.40625 234.988281 400.46875 C 235.429688 399.535156 235.890625 398.632812 236.378906 397.78125 C 236.867188 396.925781 237.378906 396.105469 237.914062 395.339844 C 238.449219 394.570312 238.996094 393.851562 239.570312 393.179688 C 240.140625 392.503906 240.734375 391.878906 241.34375 391.308594 C 241.953125 390.738281 242.578125 390.21875 243.210938 389.757812 C 243.855469 389.292969 244.496094 388.886719 245.164062 388.527344 C 245.820312 388.179688 246.488281 387.886719 247.160156 387.652344 C 247.835938 387.414062 248.519531 387.238281 249.210938 387.113281 C 249.898438 386.992188 250.582031 386.9375 251.273438 386.9375 C 251.964844 386.9375 252.648438 386.992188 253.335938 387.113281 C 254.027344 387.238281 254.703125 387.40625 255.386719 387.652344 C 256.066406 387.894531 256.734375 388.179688 257.382812 388.527344 C 258.042969 388.886719 258.691406 389.292969 259.335938 389.757812 C 259.96875 390.21875 260.59375 390.730469 261.203125 391.308594 C 261.804688 391.878906 262.398438 392.503906 262.976562 393.179688 C 263.550781 393.851562 264.105469 394.570312 264.632812 395.339844 C 265.167969 396.105469 265.679688 396.925781 266.167969 397.78125 C 266.65625 398.640625 267.121094 399.535156 267.558594 400.46875 C 267.996094 401.40625 268.402344 402.378906 268.785156 403.386719 C 269.167969 404.394531 269.523438 405.4375 269.851562 406.5 C 270.175781 407.574219 270.46875 408.664062 270.734375 409.785156 C 270.996094 410.90625 271.230469 412.046875 271.425781 413.207031 C 271.621094 414.371094 271.792969 415.539062 271.929688 416.726562 C 272.058594 417.914062 272.164062 419.117188 272.230469 420.320312 C 272.296875 421.523438 272.335938 422.734375 272.335938 423.945312 Z M 272.335938 423.945312 " fill-opacity="1" fill-rule="nonzero"/><path fill="#ffffff" d="M 263.992188 373.863281 C 263.992188 374.703125 263.910156 375.523438 263.746094 376.34375 C 263.585938 377.164062 263.339844 377.953125 263.023438 378.726562 C 262.707031 379.5 262.308594 380.230469 261.855469 380.921875 C 261.390625 381.613281 260.863281 382.253906 260.277344 382.839844 C 259.691406 383.425781 259.042969 383.960938 258.351562 384.425781 C 257.660156 384.886719 256.921875 385.277344 256.15625 385.59375 C 255.386719 385.910156 254.597656 386.15625 253.777344 386.316406 C 252.957031 386.480469 252.136719 386.5625 251.296875 386.5625 C 250.460938 386.5625 249.640625 386.480469 248.820312 386.316406 C 248 386.15625 247.210938 385.910156 246.4375 385.59375 C 245.667969 385.269531 244.933594 384.878906 244.246094 384.425781 C 243.554688 383.960938 242.910156 383.433594 242.320312 382.839844 C 241.726562 382.246094 241.207031 381.613281 240.742188 380.921875 C 240.277344 380.230469 239.890625 379.488281 239.570312 378.726562 C 239.253906 377.960938 239.011719 377.15625 238.847656 376.34375 C 238.6875 375.523438 238.605469 374.703125 238.605469 373.863281 C 238.605469 373.027344 238.6875 372.207031 238.847656 371.386719 C 239.011719 370.566406 239.253906 369.777344 239.570312 369.003906 C 239.890625 368.230469 240.289062 367.507812 240.742188 366.808594 C 241.207031 366.117188 241.734375 365.46875 242.320312 364.882812 C 242.910156 364.296875 243.554688 363.761719 244.246094 363.304688 C 244.933594 362.84375 245.675781 362.453125 246.4375 362.136719 C 247.210938 361.808594 248 361.574219 248.820312 361.410156 C 249.640625 361.25 250.460938 361.167969 251.296875 361.167969 C 252.136719 361.167969 252.957031 361.25 253.777344 361.410156 C 254.597656 361.574219 255.386719 361.808594 256.15625 362.136719 C 256.929688 362.453125 257.660156 362.84375 258.351562 363.304688 C 259.042969 363.769531 259.683594 364.296875 260.277344 364.882812 C 260.863281 365.46875 261.390625 366.117188 261.855469 366.808594 C 262.316406 367.5 262.707031 368.230469 263.023438 369.003906 C 263.339844 369.777344 263.585938 370.574219 263.746094 371.386719 C 263.910156 372.207031 263.992188 373.035156 263.992188 373.863281 Z M 263.992188 373.863281 " fill-opacity="1" fill-rule="nonzero"/><path fill="#2a2342" d="M 551.78125 475.011719 L 551.78125 273.949219 L 599.539062 273.949219 L 599.539062 435.609375 L 684.660156 435.609375 L 684.660156 475.019531 L 551.78125 475.019531 Z M 551.78125 475.011719 " fill-opacity="1" fill-rule="nonzero"/><path fill="#2a2342" d="M 792.589844 477.699219 C 775.589844 477.699219 760.753906 474.644531 748.066406 468.539062 C 735.382812 462.417969 725.5 453.835938 718.441406 442.761719 C 711.386719 431.683594 707.859375 418.695312 707.859375 403.761719 L 707.859375 273.941406 L 755.347656 273.941406 L 755.347656 399.851562 C 755.347656 406.867188 756.925781 413.109375 760.070312 418.597656 C 763.214844 424.082031 767.578125 428.398438 773.152344 431.554688 C 778.726562 434.707031 785.203125 436.277344 792.589844 436.277344 C 799.976562 436.277344 806.566406 434.699219 812.140625 431.554688 C 817.714844 428.398438 822.054688 424.109375 825.160156 418.671875 C 828.261719 413.230469 829.816406 406.957031 829.816406 399.851562 L 829.816406 273.941406 L 877.304688 273.941406 L 877.304688 403.761719 C 877.304688 418.6875 873.769531 431.683594 866.707031 442.761719 C 859.652344 453.828125 849.78125 462.417969 837.097656 468.539062 C 824.417969 474.652344 809.589844 477.699219 792.589844 477.699219 Z M 792.589844 477.699219 " fill-opacity="1" fill-rule="nonzero"/><path fill="#2a2342" d="M 907.507812 475.011719 L 907.507812 273.949219 L 981.03125 273.949219 L 1006.800781 352.355469 C 1008.246094 357.121094 1009.90625 363.332031 1011.796875 370.988281 C 1013.683594 378.636719 1015.570312 386.8125 1017.453125 395.542969 C 1019.347656 404.273438 1021.125 412.664062 1022.785156 420.710938 C 1024.449219 428.765625 1025.78125 435.617188 1026.765625 441.285156 L 1016.933594 441.285156 C 1018.007812 435.617188 1019.324219 428.757812 1020.898438 420.710938 C 1022.476562 412.664062 1024.230469 404.296875 1026.164062 395.609375 C 1028.105469 386.929688 1029.992188 378.765625 1031.835938 371.117188 C 1033.691406 363.460938 1035.332031 357.210938 1036.761719 352.355469 L 1062.121094 273.949219 L 1135.914062 273.949219 L 1135.914062 475.011719 L 1088.019531 475.011719 L 1088.019531 388.238281 C 1088.019531 383.742188 1088.109375 378.019531 1088.289062 371.042969 C 1088.46875 364.070312 1088.671875 356.484375 1088.898438 348.300781 C 1089.125 340.113281 1089.34375 331.863281 1089.574219 323.539062 C 1089.800781 315.226562 1089.914062 307.460938 1089.914062 300.253906 L 1093.417969 300.253906 C 1091.703125 308.078125 1089.785156 316.214844 1087.679688 324.671875 C 1085.566406 333.132812 1083.429688 341.367188 1081.257812 349.382812 C 1079.097656 357.386719 1077.058594 364.769531 1075.132812 371.515625 C 1073.199219 378.253906 1071.558594 383.832031 1070.207031 388.226562 L 1041.613281 475 L 1001.949219 475 L 972.816406 388.226562 C 971.46875 383.824219 969.8125 378.277344 967.820312 371.582031 C 965.84375 364.875 963.773438 357.519531 961.605469 349.511719 C 959.441406 341.496094 957.289062 333.261719 955.136719 324.800781 C 952.972656 316.347656 950.957031 308.160156 949.074219 300.242188 L 953.257812 300.242188 C 953.257812 307.265625 953.371094 314.941406 953.597656 323.257812 C 953.828125 331.578125 954.046875 339.855469 954.257812 348.082031 C 954.484375 356.316406 954.6875 363.941406 954.867188 370.964844 C 955.046875 377.976562 955.136719 383.726562 955.136719 388.21875 L 955.136719 474.992188 L 907.515625 474.992188 Z M 907.507812 475.011719 " fill-opacity="1" fill-rule="nonzero"/><path fill="#2a2342" d="M 1165.972656 273.949219 L 1213.730469 273.949219 L 1213.730469 475.011719 L 1165.972656 475.011719 Z M 1165.972656 273.949219 " fill-opacity="1" fill-rule="nonzero"/><path fill="#2a2342" d="M 1243.941406 475.011719 L 1243.941406 273.949219 L 1295.746094 273.949219 L 1352.003906 364.90625 C 1355.328125 370.304688 1358.699219 376.132812 1362.113281 382.382812 C 1365.53125 388.644531 1368.953125 395.519531 1372.375 403.03125 C 1375.796875 410.542969 1379.21875 418.882812 1382.636719 428.058594 L 1377.917969 431.027344 C 1377.371094 423.742188 1376.851562 415.644531 1376.355469 406.738281 C 1375.859375 397.828125 1375.429688 389.195312 1375.074219 380.824219 C 1374.722656 372.457031 1374.542969 365.492188 1374.542969 359.90625 L 1374.542969 273.949219 L 1423.234375 273.949219 L 1423.234375 475.011719 L 1371.292969 475.011719 L 1319.644531 391.625 C 1315.5 384.78125 1311.542969 377.96875 1307.757812 371.183594 C 1303.984375 364.386719 1300.140625 356.964844 1296.226562 348.910156 C 1292.316406 340.847656 1287.886719 331.652344 1282.941406 321.304688 L 1289.285156 320.492188 C 1289.921875 330.035156 1290.496094 339.351562 1291.035156 348.4375 C 1291.578125 357.527344 1291.984375 365.800781 1292.253906 373.261719 C 1292.519531 380.726562 1292.660156 386.847656 1292.660156 391.617188 L 1292.660156 475 L 1243.949219 475 Z M 1243.941406 475.011719 " fill-opacity="1" fill-rule="nonzero"/><path fill="#2a2342" d="M 574 579.8125 C 571.1875 579.8125 568.855469 579.339844 566.988281 578.40625 C 565.125 577.453125 563.621094 576.332031 562.5 575.03125 C 561.378906 573.742188 560.492188 572.539062 559.828125 571.441406 L 559.136719 571.441406 L 559.136719 578.804688 L 551.667969 578.804688 L 551.667969 514.214844 L 559.390625 514.214844 L 559.390625 538.503906 L 559.859375 538.503906 C 560.503906 537.429688 561.371094 536.257812 562.46875 535 C 563.558594 533.722656 565.027344 532.617188 566.855469 531.683594 C 568.691406 530.730469 571.058594 530.261719 573.949219 530.261719 C 577.988281 530.261719 581.53125 531.277344 584.578125 533.308594 C 587.636719 535.332031 590.03125 538.195312 591.753906 541.890625 C 593.492188 545.582031 594.363281 549.949219 594.363281 554.964844 C 594.363281 559.976562 593.503906 564.410156 591.769531 568.125 C 590.054688 571.839844 587.675781 574.714844 584.628906 576.765625 C 581.582031 578.796875 578.039062 579.8125 574 579.8125 Z M 572.828125 572.917969 C 575.777344 572.917969 578.265625 572.140625 580.296875 570.578125 C 582.335938 569.007812 583.890625 566.871094 584.9375 564.15625 C 585.984375 561.441406 586.511719 558.359375 586.511719 554.929688 C 586.511719 551.5 585.992188 548.4375 584.953125 545.769531 C 583.914062 543.09375 582.371094 540.988281 580.328125 539.453125 C 578.296875 537.917969 575.796875 537.152344 572.828125 537.152344 C 569.863281 537.152344 567.386719 537.902344 565.363281 539.390625 C 563.339844 540.875 561.792969 542.957031 560.738281 545.625 C 559.691406 548.28125 559.160156 551.378906 559.160156 554.9375 C 559.160156 558.5 559.691406 561.621094 560.738281 564.320312 C 561.792969 567.019531 563.355469 569.132812 565.410156 570.652344 C 567.464844 572.164062 569.9375 572.917969 572.828125 572.917969 Z M 572.828125 572.917969 " fill-opacity="1" fill-rule="nonzero"/><path fill="#2a2342" d="M 604.585938 596.492188 L 606.089844 589.785156 L 607.746094 589.957031 C 609.191406 590.273438 610.5 590.316406 611.671875 590.078125 C 612.859375 589.851562 613.914062 589.21875 614.855469 588.183594 C 615.808594 587.144531 616.636719 585.582031 617.359375 583.496094 L 619 578.957031 L 600.667969 530.96875 L 609.078125 530.96875 L 619.300781 559.199219 C 620.34375 562.003906 621.234375 564.800781 621.976562 567.578125 C 622.730469 570.367188 623.519531 573.082031 624.332031 575.707031 L 621.691406 575.707031 C 622.488281 573.082031 623.277344 570.367188 624.046875 567.578125 C 624.8125 564.789062 625.707031 562.003906 626.722656 559.199219 L 636.984375 530.96875 L 645.3125 530.96875 L 624.082031 586.324219 C 623.152344 588.769531 622.015625 590.800781 620.675781 592.421875 C 619.328125 594.046875 617.765625 595.25 615.988281 596.027344 C 614.214844 596.808594 612.214844 597.199219 609.988281 597.199219 C 608.746094 597.199219 607.640625 597.117188 606.691406 596.964844 C 605.738281 596.800781 605.03125 596.648438 604.578125 596.507812 Z M 604.585938 596.492188 " fill-opacity="1" fill-rule="nonzero"/><path fill="#2a2342" d="M 702.78125 558.605469 L 711.363281 558.605469 L 718.554688 568.058594 L 720.367188 570.578125 L 731.117188 584.867188 L 722.535156 584.867188 L 715.523438 575.414062 L 713.695312 572.992188 L 702.773438 558.597656 Z M 705.585938 579.722656 C 700.042969 579.722656 695.09375 578.367188 690.753906 575.660156 C 686.40625 572.945312 682.984375 569.097656 680.492188 564.125 C 678.003906 559.140625 676.769531 553.296875 676.769531 546.566406 C 676.769531 539.835938 678.011719 533.941406 680.492188 528.96875 C 682.984375 523.984375 686.40625 520.140625 690.753906 517.402344 C 695.09375 514.667969 700.042969 513.304688 705.585938 513.304688 C 711.125 513.304688 716.109375 514.667969 720.429688 517.402344 C 724.753906 520.132812 728.160156 523.984375 730.636719 528.96875 C 733.117188 533.933594 734.359375 539.804688 734.359375 546.566406 C 734.359375 553.328125 733.117188 559.148438 730.636719 564.125 C 728.152344 569.089844 724.753906 572.9375 720.429688 575.660156 C 716.109375 578.367188 711.160156 579.722656 705.585938 579.722656 Z M 705.585938 572.171875 C 709.453125 572.171875 712.953125 571.1875 716.097656 569.222656 C 719.234375 567.253906 721.738281 564.375 723.601562 560.5625 C 725.460938 556.75 726.394531 552.078125 726.394531 546.558594 C 726.394531 541.039062 725.460938 536.316406 723.601562 532.488281 C 721.738281 528.660156 719.234375 525.765625 716.097656 523.796875 C 712.960938 521.832031 709.453125 520.847656 705.585938 520.847656 C 701.714844 520.847656 698.207031 521.839844 695.054688 523.832031 C 691.898438 525.804688 689.398438 528.699219 687.535156 532.519531 C 685.675781 536.324219 684.742188 541.007812 684.742188 546.558594 C 684.742188 552.109375 685.675781 556.742188 687.535156 560.546875 C 689.398438 564.34375 691.910156 567.230469 695.054688 569.203125 C 698.207031 571.179688 701.707031 572.171875 705.585938 572.171875 Z M 705.585938 572.171875 " fill-opacity="1" fill-rule="nonzero"/><path fill="#2a2342" d="M 745.890625 514.222656 L 753.609375 514.222656 L 753.609375 578.8125 L 745.890625 578.8125 Z M 745.890625 514.222656 " fill-opacity="1" fill-rule="nonzero"/><path fill="#2a2342" d="M 780.351562 579.84375 C 777.28125 579.84375 774.507812 579.285156 772.039062 578.171875 C 769.578125 577.039062 767.609375 575.382812 766.148438 573.1875 C 764.691406 570.984375 763.960938 568.308594 763.960938 565.15625 C 763.960938 562.410156 764.507812 560.191406 765.585938 558.484375 C 766.667969 556.785156 768.113281 555.425781 769.917969 554.433594 C 771.722656 553.433594 773.730469 552.6875 775.949219 552.199219 C 778.15625 551.703125 780.382812 551.3125 782.636719 551.011719 C 785.554688 550.640625 787.902344 550.355469 789.679688 550.152344 C 791.460938 549.949219 792.777344 549.605469 793.621094 549.136719 C 794.476562 548.664062 794.90625 547.835938 794.90625 546.648438 L 794.90625 546.339844 C 794.90625 544.394531 794.523438 542.738281 793.753906 541.355469 C 792.980469 539.964844 791.851562 538.910156 790.347656 538.167969 C 788.84375 537.421875 786.984375 537.046875 784.757812 537.046875 C 782.53125 537.046875 780.515625 537.40625 778.882812 538.113281 C 777.238281 538.828125 775.90625 539.738281 774.882812 540.859375 C 773.867188 541.964844 773.152344 543.144531 772.746094 544.378906 L 765.246094 542.429688 C 766.230469 539.511719 767.707031 537.160156 769.699219 535.382812 C 771.699219 533.601562 773.988281 532.292969 776.574219 531.472656 C 779.15625 530.648438 781.824219 530.234375 784.578125 530.234375 C 786.414062 530.234375 788.371094 530.480469 790.453125 530.96875 C 792.542969 531.4375 794.5 532.269531 796.328125 533.453125 C 798.164062 534.640625 799.660156 536.324219 800.8125 538.503906 C 801.976562 540.679688 802.5625 543.492188 802.5625 546.941406 L 802.5625 578.796875 L 794.980469 578.796875 L 794.980469 572.210938 L 794.539062 572.210938 C 793.996094 573.34375 793.132812 574.496094 791.949219 575.683594 C 790.761719 576.871094 789.21875 577.863281 787.308594 578.648438 C 785.398438 579.4375 783.074219 579.835938 780.335938 579.835938 Z M 781.605469 573 C 784.519531 573 786.964844 572.449219 788.933594 571.34375 C 790.898438 570.21875 792.378906 568.773438 793.386719 566.992188 C 794.402344 565.195312 794.914062 563.3125 794.914062 561.335938 L 794.914062 554.847656 C 794.597656 555.191406 793.9375 555.507812 792.929688 555.800781 C 791.941406 556.085938 790.777344 556.34375 789.460938 556.582031 C 788.152344 556.808594 786.851562 557.003906 785.570312 557.175781 C 784.285156 557.335938 783.1875 557.464844 782.300781 557.582031 C 780.449219 557.808594 778.710938 558.207031 777.085938 558.765625 C 775.46875 559.335938 774.175781 560.148438 773.191406 561.222656 C 772.210938 562.296875 771.722656 563.742188 771.722656 565.554688 C 771.722656 567.171875 772.144531 568.539062 772.988281 569.652344 C 773.84375 570.757812 775.003906 571.59375 776.476562 572.15625 C 777.953125 572.722656 779.660156 573 781.605469 573 Z M 781.605469 573 " fill-opacity="1" fill-rule="nonzero"/><path fill="#2a2342" d="M 834.960938 530.949219 L 834.960938 537.535156 L 809.957031 537.535156 L 809.957031 530.949219 Z M 817.398438 519.222656 L 825.101562 519.222656 L 825.101562 566.585938 C 825.101562 568.644531 825.523438 570.140625 826.371094 571.074219 C 827.222656 572.015625 828.667969 572.480469 830.699219 572.480469 C 831.222656 572.480469 831.855469 572.441406 832.609375 572.359375 C 833.375 572.269531 834.082031 572.179688 834.722656 572.089844 L 835.976562 578.59375 C 835.164062 578.828125 834.261719 579.007812 833.269531 579.121094 C 832.277344 579.234375 831.292969 579.292969 830.34375 579.292969 C 826.214844 579.292969 823.015625 578.234375 820.761719 576.121094 C 818.511719 574.015625 817.390625 571.035156 817.390625 567.195312 L 817.390625 519.222656 Z M 817.398438 519.222656 " fill-opacity="1" fill-rule="nonzero"/><path fill="#2a2342" d="M 863.683594 530.949219 L 863.683594 537.535156 L 838.679688 537.535156 L 838.679688 530.949219 Z M 846.132812 519.222656 L 853.835938 519.222656 L 853.835938 566.585938 C 853.835938 568.644531 854.257812 570.140625 855.105469 571.074219 C 855.957031 572.015625 857.402344 572.480469 859.433594 572.480469 C 859.953125 572.480469 860.589844 572.441406 861.34375 572.359375 C 862.109375 572.269531 862.816406 572.179688 863.457031 572.089844 L 864.707031 578.59375 C 863.894531 578.828125 862.992188 579.007812 862.003906 579.121094 C 861.011719 579.234375 860.027344 579.292969 859.078125 579.292969 C 854.949219 579.292969 851.746094 578.234375 849.496094 576.121094 C 847.246094 574.015625 846.125 571.035156 846.125 567.195312 L 846.125 519.222656 Z M 846.132812 519.222656 " fill-opacity="1" fill-rule="nonzero"/><path fill="#2a2342" d="M 893.140625 579.84375 C 888.511719 579.84375 884.527344 578.804688 881.171875 576.730469 C 877.832031 574.660156 875.265625 571.773438 873.46875 568.074219 C 871.671875 564.375 870.777344 560.074219 870.777344 555.191406 C 870.777344 550.304688 871.664062 545.988281 873.4375 542.234375 C 875.214844 538.46875 877.734375 535.542969 880.984375 533.429688 C 884.234375 531.324219 888.015625 530.261719 892.3125 530.261719 C 895.027344 530.261719 897.644531 530.714844 900.15625 531.632812 C 902.664062 532.550781 904.933594 533.984375 906.921875 535.933594 C 908.921875 537.875 910.5 540.378906 911.644531 543.453125 C 912.796875 546.515625 913.375 550.167969 913.375 554.410156 L 913.375 557.410156 L 875.777344 557.410156 L 875.777344 550.90625 L 909.175781 550.90625 L 905.671875 553.246094 C 905.671875 550.09375 905.152344 547.3125 904.128906 544.882812 C 903.097656 542.460938 901.59375 540.558594 899.609375 539.195312 C 897.636719 537.820312 895.199219 537.128906 892.3125 537.128906 C 889.429688 537.128906 887 537.820312 884.933594 539.210938 C 882.871094 540.589844 881.285156 542.429688 880.179688 544.730469 C 879.082031 547.023438 878.539062 549.550781 878.539062 552.296875 L 878.539062 556.359375 C 878.539062 559.863281 879.132812 562.855469 880.335938 565.335938 C 881.539062 567.824219 883.253906 569.714844 885.460938 571.007812 C 887.671875 572.308594 890.257812 572.960938 893.199219 572.960938 C 895.164062 572.960938 896.929688 572.675781 898.496094 572.097656 C 900.074219 571.519531 901.421875 570.667969 902.542969 569.539062 C 903.671875 568.40625 904.527344 567.027344 905.101562 565.390625 L 912.601562 567.035156 C 911.878906 569.539062 910.621094 571.765625 908.824219 573.707031 C 907.039062 575.640625 904.8125 577.144531 902.136719 578.226562 C 899.464844 579.308594 896.464844 579.851562 893.148438 579.851562 Z M 893.140625 579.84375 " fill-opacity="1" fill-rule="nonzero"/></svg>