<svg xmlns="http://www.w3.org/2000/svg" xmlns:xlink="http://www.w3.org/1999/xlink" width="1920" zoomAndPan="magnify" viewBox="0 0 1440 809.999993" height="1080" preserveAspectRatio="xMidYMid meet" version="1.0"><defs><g/><clipPath id="0deab22cb6"><path d="M 0.761719 441 L 666.039062 441 L 666.039062 689 L 0.761719 689 Z M 0.761719 441 " clip-rule="nonzero"/></clipPath><clipPath id="809972ab7b"><rect x="0" width="667" y="0" height="248"/></clipPath><clipPath id="fb33471d6f"><rect x="0" width="667" y="0" height="745"/></clipPath></defs><g transform="matrix(1, 0, 0, 1, 383, 33)"><g clip-path="url(#fb33471d6f)"><path stroke-linecap="butt" transform="matrix(5.352196, 0, 0, 5.352196, 69.519455, 0.519562)" fill-opacity="1" fill="#862fff" fill-rule="nonzero" stroke-linejoin="round" d="M 37.880203 18.400007 L 47.060138 23.700109 L 47.060138 34.300315 L 37.880203 39.599688 L 28.700267 34.300315 L 28.700267 23.700109 Z M 37.880203 18.400007 " stroke="#862fff" stroke-width="2.4" stroke-opacity="1" stroke-miterlimit="4"/><path stroke-linecap="butt" transform="matrix(5.352196, 0, 0, 5.352196, 69.519455, 0.519562)" fill-opacity="1" fill="#862fff" fill-rule="nonzero" stroke-linejoin="round" d="M 62.11967 18.400007 L 71.300336 23.700109 L 71.300336 34.300315 L 62.11967 39.599688 L 52.939735 34.300315 L 52.939735 23.700109 Z M 62.11967 18.400007 " stroke="#862fff" stroke-width="2.4" stroke-opacity="1" stroke-miterlimit="4"/><path stroke-linecap="butt" transform="matrix(5.352196, 0, 0, 5.352196, 69.519455, 0.519562)" fill-opacity="1" fill="#862fff" fill-rule="nonzero" stroke-linejoin="round" d="M 74.250351 39.399711 L 83.430287 44.699814 L 83.430287 55.300019 L 74.250351 60.600122 L 65.069686 55.300019 L 65.069686 44.699814 Z M 74.250351 39.399711 " stroke="#862fff" stroke-width="2.4" stroke-opacity="1" stroke-miterlimit="4"/><path stroke-linecap="butt" transform="matrix(5.352196, 0, 0, 5.352196, 69.519455, 0.519562)" fill-opacity="1" fill="#862fff" fill-rule="nonzero" stroke-linejoin="round" d="M 25.750252 39.399711 L 34.930187 44.699814 L 34.930187 55.300019 L 25.750252 60.600122 L 16.570316 55.300019 L 16.570316 44.699814 Z M 25.750252 39.399711 " stroke="#862fff" stroke-width="2.4" stroke-opacity="1" stroke-miterlimit="4"/><path stroke-linecap="butt" transform="matrix(5.352196, 0, 0, 5.352196, 69.519455, 0.519562)" fill-opacity="1" fill="#862fff" fill-rule="nonzero" stroke-linejoin="round" d="M 62.11967 60.400146 L 71.300336 65.700248 L 71.300336 76.299724 L 62.11967 81.599827 L 52.939735 76.299724 L 52.939735 65.700248 Z M 62.11967 60.400146 " stroke="#862fff" stroke-width="2.4" stroke-opacity="1" stroke-miterlimit="4"/><path stroke-linecap="butt" transform="matrix(5.352196, 0, 0, 5.352196, 69.519455, 0.519562)" fill-opacity="1" fill="#862fff" fill-rule="nonzero" stroke-linejoin="round" d="M 37.880203 60.400146 L 47.060138 65.700248 L 47.060138 76.299724 L 37.880203 81.599827 L 28.700267 76.299724 L 28.700267 65.700248 Z M 37.880203 60.400146 " stroke="#862fff" stroke-width="2.4" stroke-opacity="1" stroke-miterlimit="4"/><path stroke-linecap="butt" transform="matrix(5.352196, 0, 0, 5.352196, 69.519455, 0.519562)" fill-opacity="1" fill="#ff9fab" fill-rule="nonzero" stroke-linejoin="round" d="M 49.999937 39.399711 L 59.179872 44.699814 L 59.179872 55.300019 L 49.999937 60.600122 L 40.820001 55.300019 L 40.820001 44.699814 Z M 49.999937 39.399711 " stroke="#ff9fab" stroke-width="2.4" stroke-opacity="1" stroke-miterlimit="4"/><path fill="#ffffff" d="M 329.082031 255.558594 C 329.335938 256.191406 329.570312 256.832031 329.78125 257.480469 C 329.988281 258.128906 330.175781 258.785156 330.339844 259.441406 C 330.5 260.097656 330.640625 260.757812 330.75 261.417969 C 330.863281 262.078125 330.953125 262.734375 331.015625 263.390625 C 331.078125 264.046875 331.113281 264.699219 331.125 265.34375 C 331.136719 265.988281 331.121094 266.625 331.082031 267.257812 C 331.042969 267.886719 330.976562 268.503906 330.886719 269.109375 C 330.796875 269.714844 330.679688 270.308594 330.539062 270.886719 C 330.398438 271.464844 330.234375 272.027344 330.042969 272.570312 C 329.855469 273.113281 329.640625 273.640625 329.40625 274.144531 C 329.171875 274.648438 328.910156 275.132812 328.632812 275.59375 C 328.351562 276.054688 328.050781 276.492188 327.726562 276.902344 C 327.40625 277.316406 327.0625 277.703125 326.703125 278.0625 C 326.339844 278.421875 325.960938 278.753906 325.566406 279.058594 C 325.167969 279.363281 324.757812 279.636719 324.328125 279.882812 C 323.902344 280.125 323.460938 280.339844 323.003906 280.523438 C 322.550781 280.710938 322.082031 280.863281 321.605469 280.980469 C 321.128906 281.101562 320.640625 281.191406 320.144531 281.25 C 319.648438 281.304688 319.144531 281.328125 318.632812 281.320312 C 318.125 281.3125 317.609375 281.273438 317.09375 281.199219 C 316.574219 281.128906 316.054688 281.023438 315.53125 280.886719 C 315.007812 280.75 314.488281 280.582031 313.96875 280.382812 C 313.445312 280.183594 312.929688 279.953125 312.414062 279.695312 C 311.902344 279.433594 311.390625 279.144531 310.890625 278.828125 C 310.386719 278.507812 309.890625 278.164062 309.40625 277.789062 C 308.917969 277.414062 308.441406 277.015625 307.976562 276.589844 C 307.511719 276.167969 307.058594 275.71875 306.617188 275.246094 C 306.175781 274.773438 305.75 274.28125 305.339844 273.765625 C 304.929688 273.25 304.535156 272.714844 304.160156 272.160156 C 303.78125 271.609375 303.421875 271.039062 303.082031 270.453125 C 302.742188 269.867188 302.421875 269.269531 302.125 268.65625 C 301.824219 268.042969 301.546875 267.417969 301.289062 266.785156 C 301.035156 266.152344 300.800781 265.511719 300.589844 264.863281 C 300.378906 264.210938 300.195312 263.558594 300.03125 262.902344 C 299.871094 262.246094 299.730469 261.585938 299.617188 260.925781 C 299.503906 260.265625 299.417969 259.609375 299.355469 258.953125 C 299.292969 258.296875 299.257812 257.644531 299.246094 257 C 299.234375 256.355469 299.246094 255.714844 299.289062 255.085938 C 299.328125 254.457031 299.394531 253.839844 299.484375 253.234375 C 299.574219 252.625 299.691406 252.035156 299.832031 251.457031 C 299.972656 250.878906 300.136719 250.316406 300.324219 249.773438 C 300.515625 249.226562 300.726562 248.703125 300.964844 248.199219 C 301.199219 247.695312 301.457031 247.210938 301.738281 246.75 C 302.019531 246.289062 302.320312 245.851562 302.644531 245.4375 C 302.964844 245.027344 303.308594 244.640625 303.667969 244.28125 C 304.03125 243.921875 304.410156 243.589844 304.804688 243.285156 C 305.203125 242.980469 305.613281 242.707031 306.042969 242.460938 C 306.46875 242.214844 306.910156 242 307.367188 241.816406 C 307.820312 241.632812 308.289062 241.480469 308.765625 241.359375 C 309.242188 241.238281 309.730469 241.152344 310.226562 241.09375 C 310.722656 241.039062 311.226562 241.011719 311.734375 241.023438 C 312.246094 241.03125 312.761719 241.070312 313.277344 241.144531 C 313.796875 241.214844 314.316406 241.320312 314.839844 241.457031 C 315.359375 241.59375 315.882812 241.761719 316.402344 241.960938 C 316.925781 242.160156 317.441406 242.390625 317.957031 242.648438 C 318.46875 242.910156 318.976562 243.199219 319.480469 243.515625 C 319.984375 243.835938 320.480469 244.179688 320.964844 244.554688 C 321.453125 244.925781 321.929688 245.328125 322.394531 245.75 C 322.859375 246.175781 323.3125 246.625 323.753906 247.097656 C 324.195312 247.570312 324.621094 248.0625 325.03125 248.578125 C 325.441406 249.09375 325.835938 249.628906 326.210938 250.179688 C 326.589844 250.734375 326.949219 251.304688 327.289062 251.890625 C 327.628906 252.476562 327.949219 253.074219 328.246094 253.6875 C 328.546875 254.300781 328.824219 254.921875 329.082031 255.558594 Z M 329.082031 255.558594 " fill-opacity="1" fill-rule="nonzero"/><path fill="#ffffff" d="M 372.96875 266.785156 C 372.710938 267.417969 372.433594 268.042969 372.136719 268.65625 C 371.835938 269.269531 371.515625 269.867188 371.175781 270.453125 C 370.835938 271.039062 370.476562 271.609375 370.101562 272.160156 C 369.722656 272.714844 369.328125 273.25 368.917969 273.765625 C 368.507812 274.28125 368.082031 274.773438 367.640625 275.246094 C 367.199219 275.71875 366.746094 276.167969 366.28125 276.589844 C 365.816406 277.015625 365.339844 277.414062 364.855469 277.789062 C 364.367188 278.164062 363.871094 278.507812 363.371094 278.828125 C 362.867188 279.144531 362.359375 279.433594 361.84375 279.695312 C 361.328125 279.953125 360.8125 280.183594 360.292969 280.382812 C 359.769531 280.582031 359.25 280.75 358.726562 280.886719 C 358.207031 281.023438 357.683594 281.128906 357.167969 281.199219 C 356.648438 281.273438 356.132812 281.3125 355.625 281.320312 C 355.113281 281.328125 354.609375 281.304688 354.113281 281.25 C 353.617188 281.191406 353.132812 281.101562 352.652344 280.980469 C 352.175781 280.863281 351.710938 280.710938 351.253906 280.523438 C 350.796875 280.339844 350.355469 280.125 349.929688 279.882812 C 349.5 279.636719 349.089844 279.363281 348.691406 279.058594 C 348.296875 278.753906 347.917969 278.421875 347.558594 278.0625 C 347.195312 277.703125 346.855469 277.316406 346.53125 276.902344 C 346.210938 276.492188 345.90625 276.054688 345.628906 275.59375 C 345.347656 275.132812 345.089844 274.648438 344.851562 274.144531 C 344.617188 273.640625 344.402344 273.113281 344.214844 272.570312 C 344.023438 272.027344 343.859375 271.464844 343.71875 270.886719 C 343.578125 270.308594 343.460938 269.714844 343.371094 269.109375 C 343.28125 268.503906 343.214844 267.886719 343.175781 267.257812 C 343.136719 266.625 343.121094 265.988281 343.132812 265.34375 C 343.144531 264.699219 343.179688 264.046875 343.242188 263.390625 C 343.304688 262.734375 343.394531 262.078125 343.507812 261.417969 C 343.621094 260.757812 343.757812 260.097656 343.917969 259.441406 C 344.082031 258.785156 344.269531 258.128906 344.480469 257.480469 C 344.6875 256.832031 344.921875 256.191406 345.179688 255.558594 C 345.433594 254.921875 345.710938 254.300781 346.011719 253.6875 C 346.3125 253.074219 346.628906 252.476562 346.972656 251.890625 C 347.3125 251.304688 347.667969 250.734375 348.046875 250.179688 C 348.421875 249.628906 348.816406 249.09375 349.226562 248.578125 C 349.640625 248.0625 350.066406 247.570312 350.503906 247.097656 C 350.945312 246.625 351.398438 246.175781 351.863281 245.75 C 352.328125 245.328125 352.804688 244.925781 353.292969 244.554688 C 353.78125 244.179688 354.273438 243.835938 354.777344 243.515625 C 355.28125 243.199219 355.789062 242.910156 356.304688 242.648438 C 356.816406 242.390625 357.335938 242.160156 357.855469 241.960938 C 358.375 241.761719 358.898438 241.59375 359.417969 241.457031 C 359.941406 241.320312 360.460938 241.214844 360.980469 241.144531 C 361.5 241.070312 362.011719 241.03125 362.523438 241.023438 C 363.03125 241.011719 363.535156 241.039062 364.03125 241.09375 C 364.527344 241.152344 365.015625 241.238281 365.492188 241.359375 C 365.972656 241.480469 366.4375 241.632812 366.894531 241.816406 C 367.347656 242 367.789062 242.214844 368.21875 242.460938 C 368.644531 242.707031 369.058594 242.980469 369.453125 243.285156 C 369.847656 243.589844 370.226562 243.921875 370.589844 244.28125 C 370.949219 244.640625 371.292969 245.027344 371.613281 245.4375 C 371.9375 245.851562 372.238281 246.289062 372.519531 246.75 C 372.800781 247.210938 373.058594 247.695312 373.292969 248.199219 C 373.53125 248.703125 373.742188 249.226562 373.933594 249.773438 C 374.121094 250.316406 374.285156 250.878906 374.425781 251.457031 C 374.566406 252.035156 374.683594 252.625 374.773438 253.234375 C 374.867188 253.839844 374.929688 254.457031 374.96875 255.085938 C 375.011719 255.714844 375.023438 256.355469 375.011719 257 C 375.003906 257.644531 374.964844 258.296875 374.902344 258.953125 C 374.839844 259.609375 374.753906 260.265625 374.640625 260.925781 C 374.527344 261.585938 374.390625 262.246094 374.226562 262.902344 C 374.0625 263.558594 373.878906 264.210938 373.667969 264.863281 C 373.457031 265.511719 373.222656 266.152344 372.96875 266.785156 Z M 372.96875 266.785156 " fill-opacity="1" fill-rule="nonzero"/><path fill="#ffffff" d="M 352.652344 282.046875 C 352.652344 282.9375 352.625 283.832031 352.574219 284.71875 C 352.527344 285.609375 352.453125 286.492188 352.351562 287.371094 C 352.253906 288.246094 352.128906 289.113281 351.980469 289.96875 C 351.835938 290.824219 351.664062 291.664062 351.46875 292.492188 C 351.273438 293.316406 351.058594 294.125 350.816406 294.914062 C 350.578125 295.699219 350.316406 296.464844 350.035156 297.210938 C 349.753906 297.953125 349.449219 298.671875 349.128906 299.363281 C 348.804688 300.050781 348.464844 300.714844 348.105469 301.347656 C 347.746094 301.976562 347.367188 302.578125 346.976562 303.144531 C 346.582031 303.710938 346.175781 304.246094 345.753906 304.742188 C 345.328125 305.238281 344.894531 305.695312 344.445312 306.117188 C 343.996094 306.539062 343.539062 306.921875 343.070312 307.261719 C 342.597656 307.605469 342.121094 307.90625 341.636719 308.164062 C 341.148438 308.425781 340.65625 308.640625 340.15625 308.816406 C 339.660156 308.992188 339.15625 309.121094 338.652344 309.210938 C 338.144531 309.296875 337.636719 309.339844 337.128906 309.339844 C 336.621094 309.339844 336.113281 309.296875 335.609375 309.210938 C 335.101562 309.121094 334.601562 308.992188 334.101562 308.816406 C 333.601562 308.640625 333.109375 308.425781 332.625 308.164062 C 332.136719 307.90625 331.660156 307.605469 331.1875 307.261719 C 330.71875 306.921875 330.261719 306.539062 329.8125 306.117188 C 329.363281 305.695312 328.929688 305.238281 328.507812 304.742188 C 328.082031 304.246094 327.675781 303.710938 327.28125 303.144531 C 326.890625 302.578125 326.511719 301.976562 326.152344 301.347656 C 325.792969 300.714844 325.453125 300.050781 325.132812 299.363281 C 324.808594 298.671875 324.507812 297.953125 324.222656 297.210938 C 323.941406 296.464844 323.679688 295.699219 323.441406 294.914062 C 323.199219 294.125 322.984375 293.316406 322.789062 292.492188 C 322.59375 291.664062 322.421875 290.824219 322.277344 289.96875 C 322.128906 289.113281 322.003906 288.246094 321.90625 287.371094 C 321.808594 286.492188 321.734375 285.609375 321.683594 284.71875 C 321.632812 283.832031 321.609375 282.9375 321.609375 282.046875 C 321.609375 281.152344 321.632812 280.257812 321.683594 279.371094 C 321.734375 278.480469 321.808594 277.597656 321.90625 276.71875 C 322.003906 275.84375 322.128906 274.976562 322.277344 274.121094 C 322.421875 273.265625 322.59375 272.425781 322.789062 271.597656 C 322.984375 270.773438 323.199219 269.964844 323.441406 269.175781 C 323.679688 268.390625 323.941406 267.625 324.222656 266.878906 C 324.507812 266.136719 324.808594 265.417969 325.132812 264.726562 C 325.453125 264.039062 325.792969 263.375 326.152344 262.742188 C 326.511719 262.113281 326.890625 261.511719 327.28125 260.945312 C 327.675781 260.378906 328.082031 259.847656 328.507812 259.347656 C 328.929688 258.851562 329.363281 258.394531 329.8125 257.972656 C 330.261719 257.550781 330.71875 257.167969 331.1875 256.828125 C 331.660156 256.484375 332.136719 256.183594 332.625 255.925781 C 333.109375 255.664062 333.601562 255.449219 334.101562 255.273438 C 334.601562 255.097656 335.101562 254.96875 335.609375 254.878906 C 336.113281 254.792969 336.621094 254.75 337.128906 254.75 C 337.636719 254.75 338.144531 254.792969 338.652344 254.878906 C 339.15625 254.96875 339.660156 255.097656 340.15625 255.273438 C 340.65625 255.449219 341.148438 255.664062 341.636719 255.925781 C 342.121094 256.183594 342.597656 256.484375 343.070312 256.828125 C 343.539062 257.167969 343.996094 257.550781 344.445312 257.972656 C 344.894531 258.394531 345.328125 258.851562 345.753906 259.347656 C 346.175781 259.847656 346.582031 260.378906 346.976562 260.945312 C 347.367188 261.511719 347.746094 262.113281 348.105469 262.742188 C 348.464844 263.375 348.804688 264.039062 349.128906 264.730469 C 349.449219 265.417969 349.753906 266.136719 350.035156 266.878906 C 350.316406 267.625 350.578125 268.390625 350.816406 269.175781 C 351.058594 269.964844 351.273438 270.773438 351.46875 271.597656 C 351.664062 272.425781 351.835938 273.265625 351.980469 274.121094 C 352.128906 274.976562 352.253906 275.84375 352.351562 276.71875 C 352.453125 277.597656 352.527344 278.480469 352.574219 279.371094 C 352.625 280.257812 352.652344 281.152344 352.652344 282.046875 Z M 352.652344 282.046875 " fill-opacity="1" fill-rule="nonzero"/><path fill="#ffffff" d="M 346.496094 245.113281 C 346.496094 245.730469 346.4375 246.339844 346.316406 246.941406 C 346.195312 247.546875 346.019531 248.132812 345.78125 248.699219 C 345.546875 249.265625 345.257812 249.808594 344.917969 250.320312 C 344.574219 250.828125 344.1875 251.304688 343.753906 251.738281 C 343.316406 252.171875 342.84375 252.5625 342.332031 252.902344 C 341.820312 253.246094 341.28125 253.53125 340.714844 253.769531 C 340.144531 254.003906 339.558594 254.179688 338.957031 254.300781 C 338.351562 254.421875 337.746094 254.480469 337.128906 254.480469 C 336.515625 254.480469 335.90625 254.421875 335.300781 254.300781 C 334.699219 254.179688 334.113281 254.003906 333.542969 253.769531 C 332.976562 253.53125 332.4375 253.246094 331.925781 252.902344 C 331.414062 252.5625 330.941406 252.171875 330.507812 251.738281 C 330.070312 251.304688 329.683594 250.828125 329.339844 250.320312 C 329 249.808594 328.710938 249.265625 328.476562 248.699219 C 328.242188 248.132812 328.0625 247.546875 327.941406 246.941406 C 327.824219 246.339844 327.761719 245.730469 327.761719 245.113281 C 327.761719 244.5 327.824219 243.890625 327.941406 243.289062 C 328.0625 242.683594 328.242188 242.097656 328.476562 241.53125 C 328.710938 240.960938 329 240.421875 329.339844 239.910156 C 329.683594 239.398438 330.070312 238.925781 330.507812 238.492188 C 330.941406 238.058594 331.414062 237.667969 331.925781 237.328125 C 332.4375 236.984375 332.976562 236.695312 333.542969 236.460938 C 334.113281 236.226562 334.699219 236.046875 335.300781 235.929688 C 335.90625 235.808594 336.515625 235.75 337.128906 235.75 C 337.746094 235.75 338.351562 235.808594 338.957031 235.929688 C 339.558594 236.046875 340.144531 236.226562 340.714844 236.460938 C 341.28125 236.695312 341.820312 236.984375 342.332031 237.328125 C 342.84375 237.667969 343.316406 238.058594 343.753906 238.492188 C 344.1875 238.925781 344.574219 239.398438 344.917969 239.910156 C 345.257812 240.421875 345.546875 240.960938 345.78125 241.53125 C 346.019531 242.097656 346.195312 242.683594 346.316406 243.289062 C 346.4375 243.890625 346.496094 244.5 346.496094 245.113281 Z M 346.496094 245.113281 " fill-opacity="1" fill-rule="nonzero"/><g clip-path="url(#0deab22cb6)"><g transform="matrix(1, 0, 0, 1, 0, 441)"><g clip-path="url(#809972ab7b)"><g fill="#2a2342" fill-opacity="1"><g transform="translate(0.987389, 197.019284)"><g><path d="M 11.140625 0 L 11.140625 -148.109375 L 46.328125 -148.109375 L 46.328125 -29.03125 L 109.046875 -29.03125 L 109.046875 0 Z M 11.140625 0 "/></g></g><g transform="translate(116.097257, 197.019284)"><g><path d="M 73.453125 1.984375 C 60.929688 1.984375 50 -0.265625 40.65625 -4.765625 C 31.3125 -9.273438 24.035156 -15.601562 18.828125 -23.75 C 13.628906 -31.90625 11.03125 -41.484375 11.03125 -52.484375 L 11.03125 -148.109375 L 46.03125 -148.109375 L 46.03125 -55.375 C 46.03125 -50.195312 47.1875 -45.585938 49.5 -41.546875 C 51.820312 -37.503906 55.035156 -34.320312 59.140625 -32 C 63.253906 -29.6875 68.023438 -28.53125 73.453125 -28.53125 C 78.953125 -28.53125 83.753906 -29.6875 87.859375 -32 C 91.972656 -34.320312 95.171875 -37.488281 97.453125 -41.5 C 99.742188 -45.507812 100.890625 -50.132812 100.890625 -55.375 L 100.890625 -148.109375 L 135.890625 -148.109375 L 135.890625 -52.484375 C 135.890625 -41.484375 133.285156 -31.90625 128.078125 -23.75 C 122.878906 -15.601562 115.609375 -9.273438 106.265625 -4.765625 C 96.921875 -0.265625 85.984375 1.984375 73.453125 1.984375 Z M 73.453125 1.984375 "/></g></g><g transform="translate(263.115819, 197.019284)"><g><path d="M 11.140625 0 L 11.140625 -148.109375 L 65.3125 -148.109375 L 84.296875 -90.359375 C 85.359375 -86.847656 86.582031 -82.273438 87.96875 -76.640625 C 89.363281 -71.003906 90.753906 -64.972656 92.140625 -58.546875 C 93.535156 -52.117188 94.84375 -45.9375 96.0625 -40 C 97.289062 -34.070312 98.269531 -29.019531 99 -24.84375 L 91.75 -24.84375 C 92.539062 -29.019531 93.515625 -34.070312 94.671875 -40 C 95.835938 -45.9375 97.132812 -52.101562 98.5625 -58.5 C 99.988281 -64.894531 101.378906 -70.90625 102.734375 -76.53125 C 104.085938 -82.164062 105.296875 -86.773438 106.359375 -90.359375 L 125.046875 -148.109375 L 179.421875 -148.109375 L 179.421875 0 L 144.140625 0 L 144.140625 -63.921875 C 144.140625 -67.234375 144.203125 -71.457031 144.328125 -76.59375 C 144.460938 -81.726562 144.613281 -87.3125 144.78125 -93.34375 C 144.945312 -99.375 145.113281 -105.453125 145.28125 -111.578125 C 145.445312 -117.710938 145.53125 -123.429688 145.53125 -128.734375 L 148.109375 -128.734375 C 146.847656 -122.960938 145.4375 -116.960938 143.875 -110.734375 C 142.320312 -104.503906 140.75 -98.441406 139.15625 -92.546875 C 137.570312 -86.648438 136.066406 -81.210938 134.640625 -76.234375 C 133.210938 -71.265625 132.003906 -67.160156 131.015625 -63.921875 L 109.9375 0 L 80.71875 0 L 59.25 -63.921875 C 58.25 -67.160156 57.019531 -71.25 55.5625 -76.1875 C 54.101562 -81.125 52.578125 -86.539062 50.984375 -92.4375 C 49.398438 -98.34375 47.8125 -104.410156 46.21875 -110.640625 C 44.632812 -116.867188 43.144531 -122.898438 41.75 -128.734375 L 44.828125 -128.734375 C 44.828125 -123.554688 44.910156 -117.898438 45.078125 -111.765625 C 45.242188 -105.640625 45.410156 -99.546875 45.578125 -93.484375 C 45.742188 -87.421875 45.890625 -81.804688 46.015625 -76.640625 C 46.148438 -71.472656 46.21875 -67.234375 46.21875 -63.921875 L 46.21875 0 Z M 11.140625 0 "/></g></g><g transform="translate(453.573943, 197.019284)"><g><path d="M 46.328125 -148.109375 L 46.328125 0 L 11.140625 0 L 11.140625 -148.109375 Z M 46.328125 -148.109375 "/></g></g><g transform="translate(511.029473, 197.019284)"><g><path d="M 11.140625 0 L 11.140625 -148.109375 L 49.296875 -148.109375 L 90.75 -81.109375 C 93.207031 -77.140625 95.691406 -72.847656 98.203125 -68.234375 C 100.722656 -63.628906 103.242188 -58.5625 105.765625 -53.03125 C 108.285156 -47.5 110.800781 -41.351562 113.3125 -34.59375 L 109.84375 -32.40625 C 109.445312 -37.769531 109.066406 -43.734375 108.703125 -50.296875 C 108.335938 -56.859375 108.019531 -63.21875 107.75 -69.375 C 107.488281 -75.539062 107.359375 -80.679688 107.359375 -84.796875 L 107.359375 -148.109375 L 143.234375 -148.109375 L 143.234375 0 L 104.96875 0 L 66.90625 -61.4375 C 63.851562 -66.46875 60.929688 -71.484375 58.140625 -76.484375 C 55.359375 -81.492188 52.523438 -86.960938 49.640625 -92.890625 C 46.765625 -98.828125 43.503906 -105.601562 39.859375 -113.21875 L 44.53125 -113.8125 C 45 -106.789062 45.429688 -99.929688 45.828125 -93.234375 C 46.222656 -86.546875 46.519531 -80.453125 46.71875 -74.953125 C 46.914062 -69.453125 47.015625 -64.945312 47.015625 -61.4375 L 47.015625 0 Z M 11.140625 0 "/></g></g></g></g></g></g><g fill="#2a2342" fill-opacity="1"><g transform="translate(199.853277, 727.522263)"><g><path d="M 21.265625 0.734375 C 19.203125 0.734375 17.484375 0.386719 16.109375 -0.296875 C 14.734375 -0.992188 13.628906 -1.820312 12.796875 -2.78125 C 11.972656 -3.738281 11.316406 -4.617188 10.828125 -5.421875 L 10.3125 -5.421875 L 10.3125 0 L 4.828125 0 L 4.828125 -47.578125 L 10.5 -47.578125 L 10.5 -29.703125 L 10.859375 -29.703125 C 11.328125 -30.484375 11.960938 -31.34375 12.765625 -32.28125 C 13.578125 -33.21875 14.660156 -34.03125 16.015625 -34.71875 C 17.367188 -35.414062 19.109375 -35.765625 21.234375 -35.765625 C 24.210938 -35.765625 26.828125 -35.019531 29.078125 -33.53125 C 31.328125 -32.039062 33.085938 -29.929688 34.359375 -27.203125 C 35.640625 -24.484375 36.28125 -21.269531 36.28125 -17.5625 C 36.28125 -13.832031 35.644531 -10.597656 34.375 -7.859375 C 33.113281 -5.128906 31.359375 -3.015625 29.109375 -1.515625 C 26.859375 -0.015625 24.242188 0.734375 21.265625 0.734375 Z M 20.40625 -4.34375 C 22.582031 -4.34375 24.421875 -4.914062 25.921875 -6.0625 C 27.421875 -7.21875 28.554688 -8.796875 29.328125 -10.796875 C 30.109375 -12.796875 30.5 -15.0625 30.5 -17.59375 C 30.5 -20.125 30.113281 -22.375 29.34375 -24.34375 C 28.582031 -26.320312 27.453125 -27.875 25.953125 -29 C 24.453125 -30.125 22.601562 -30.6875 20.40625 -30.6875 C 18.238281 -30.6875 16.40625 -30.140625 14.90625 -29.046875 C 13.414062 -27.953125 12.28125 -26.425781 11.5 -24.46875 C 10.726562 -22.507812 10.34375 -20.21875 10.34375 -17.59375 C 10.34375 -14.976562 10.726562 -12.675781 11.5 -10.6875 C 12.28125 -8.695312 13.425781 -7.140625 14.9375 -6.015625 C 16.457031 -4.898438 18.28125 -4.34375 20.40625 -4.34375 Z M 20.40625 -4.34375 "/></g></g></g><g fill="#2a2342" fill-opacity="1"><g transform="translate(239.218551, 727.522263)"><g><path d="M 4.4375 13.03125 L 5.5625 8.078125 L 6.765625 8.203125 C 7.835938 8.441406 8.804688 8.472656 9.671875 8.296875 C 10.546875 8.128906 11.328125 7.660156 12.015625 6.890625 C 12.710938 6.128906 13.328125 4.984375 13.859375 3.453125 L 15.078125 0.09375 L 1.5625 -35.265625 L 7.765625 -35.265625 L 15.296875 -14.46875 C 16.066406 -12.40625 16.726562 -10.34375 17.28125 -8.28125 C 17.832031 -6.226562 18.40625 -4.234375 19 -2.296875 L 17.046875 -2.296875 C 17.648438 -4.234375 18.234375 -6.226562 18.796875 -8.28125 C 19.359375 -10.34375 20.015625 -12.40625 20.765625 -14.46875 L 28.328125 -35.265625 L 34.453125 -35.265625 L 18.8125 5.53125 C 18.125 7.332031 17.285156 8.828125 16.296875 10.015625 C 15.304688 11.210938 14.15625 12.097656 12.84375 12.671875 C 11.539062 13.253906 10.070312 13.546875 8.4375 13.546875 C 7.519531 13.546875 6.707031 13.484375 6 13.359375 C 5.300781 13.242188 4.78125 13.132812 4.4375 13.03125 Z M 4.4375 13.03125 "/></g></g></g><g fill="#2a2342" fill-opacity="1"><g transform="translate(275.231551, 727.522263)"><g/></g></g><g fill="#2a2342" fill-opacity="1"><g transform="translate(293.174198, 727.522263)"><g><path d="M 22.828125 -14.875 L 29.15625 -14.875 L 34.453125 -7.921875 L 35.796875 -6.0625 L 43.71875 4.46875 L 37.390625 4.46875 L 32.21875 -2.484375 L 30.875 -4.28125 Z M 24.90625 0.671875 C 20.820312 0.671875 17.175781 -0.328125 13.96875 -2.328125 C 10.769531 -4.328125 8.253906 -7.15625 6.421875 -10.8125 C 4.585938 -14.476562 3.671875 -18.796875 3.671875 -23.765625 C 3.671875 -28.742188 4.585938 -33.0625 6.421875 -36.71875 C 8.253906 -40.382812 10.769531 -43.222656 13.96875 -45.234375 C 17.175781 -47.242188 20.820312 -48.25 24.90625 -48.25 C 29.019531 -48.25 32.664062 -47.242188 35.84375 -45.234375 C 39.03125 -43.222656 41.535156 -40.382812 43.359375 -36.71875 C 45.191406 -33.0625 46.109375 -28.742188 46.109375 -23.765625 C 46.109375 -18.796875 45.191406 -14.476562 43.359375 -10.8125 C 41.535156 -7.15625 39.03125 -4.328125 35.84375 -2.328125 C 32.664062 -0.328125 29.019531 0.671875 24.90625 0.671875 Z M 24.90625 -4.890625 C 27.757812 -4.890625 30.34375 -5.613281 32.65625 -7.0625 C 34.96875 -8.507812 36.804688 -10.632812 38.171875 -13.4375 C 39.546875 -16.25 40.234375 -19.691406 40.234375 -23.765625 C 40.234375 -27.847656 39.546875 -31.300781 38.171875 -34.125 C 36.804688 -36.945312 34.96875 -39.082031 32.65625 -40.53125 C 30.34375 -41.976562 27.757812 -42.703125 24.90625 -42.703125 C 22.050781 -42.703125 19.460938 -41.972656 17.140625 -40.515625 C 14.828125 -39.054688 12.984375 -36.921875 11.609375 -34.109375 C 10.234375 -31.296875 9.546875 -27.847656 9.546875 -23.765625 C 9.546875 -19.691406 10.234375 -16.253906 11.609375 -13.453125 C 12.984375 -10.660156 14.828125 -8.535156 17.140625 -7.078125 C 19.460938 -5.617188 22.050781 -4.890625 24.90625 -4.890625 Z M 24.90625 -4.890625 "/></g></g></g><g fill="#2a2342" fill-opacity="1"><g transform="translate(342.947484, 727.522263)"><g><path d="M 10.5 -47.578125 L 10.5 0 L 4.828125 0 L 4.828125 -47.578125 Z M 10.5 -47.578125 "/></g></g></g><g fill="#2a2342" fill-opacity="1"><g transform="translate(358.272165, 727.522263)"><g><path d="M 14.875 0.765625 C 12.625 0.765625 10.585938 0.351562 8.765625 -0.46875 C 6.941406 -1.300781 5.492188 -2.523438 4.421875 -4.140625 C 3.347656 -5.765625 2.8125 -7.738281 2.8125 -10.0625 C 2.8125 -12.082031 3.207031 -13.71875 4 -14.96875 C 4.800781 -16.226562 5.867188 -17.222656 7.203125 -17.953125 C 8.535156 -18.691406 10.015625 -19.242188 11.640625 -19.609375 C 13.265625 -19.972656 14.910156 -20.257812 16.578125 -20.46875 C 18.722656 -20.75 20.453125 -20.960938 21.765625 -21.109375 C 23.078125 -21.253906 24.046875 -21.503906 24.671875 -21.859375 C 25.296875 -22.210938 25.609375 -22.828125 25.609375 -23.703125 L 25.609375 -23.921875 C 25.609375 -25.347656 25.328125 -26.570312 24.765625 -27.59375 C 24.203125 -28.613281 23.363281 -29.394531 22.25 -29.9375 C 21.144531 -30.476562 19.773438 -30.75 18.140625 -30.75 C 16.453125 -30.75 15.007812 -30.488281 13.8125 -29.96875 C 12.613281 -29.445312 11.632812 -28.773438 10.875 -27.953125 C 10.113281 -27.140625 9.585938 -26.273438 9.296875 -25.359375 L 3.765625 -26.796875 C 4.492188 -28.941406 5.59375 -30.671875 7.0625 -31.984375 C 8.53125 -33.296875 10.21875 -34.253906 12.125 -34.859375 C 14.03125 -35.460938 15.992188 -35.765625 18.015625 -35.765625 C 19.378906 -35.765625 20.828125 -35.585938 22.359375 -35.234375 C 23.890625 -34.890625 25.332031 -34.28125 26.6875 -33.40625 C 28.039062 -32.53125 29.140625 -31.289062 29.984375 -29.6875 C 30.835938 -28.082031 31.265625 -26.007812 31.265625 -23.46875 L 31.265625 0 L 25.671875 0 L 25.671875 -4.859375 L 25.359375 -4.859375 C 24.953125 -4.023438 24.3125 -3.171875 23.4375 -2.296875 C 22.5625 -1.421875 21.421875 -0.691406 20.015625 -0.109375 C 18.617188 0.472656 16.90625 0.765625 14.875 0.765625 Z M 15.8125 -4.28125 C 17.957031 -4.28125 19.753906 -4.6875 21.203125 -5.5 C 22.648438 -6.320312 23.742188 -7.394531 24.484375 -8.71875 C 25.234375 -10.039062 25.609375 -11.425781 25.609375 -12.875 L 25.609375 -17.65625 C 25.378906 -17.40625 24.894531 -17.171875 24.15625 -16.953125 C 23.425781 -16.742188 22.578125 -16.550781 21.609375 -16.375 C 20.640625 -16.207031 19.679688 -16.066406 18.734375 -15.953125 C 17.785156 -15.835938 16.976562 -15.738281 16.3125 -15.65625 C 14.957031 -15.476562 13.679688 -15.179688 12.484375 -14.765625 C 11.296875 -14.347656 10.335938 -13.742188 9.609375 -12.953125 C 8.890625 -12.171875 8.53125 -11.109375 8.53125 -9.765625 C 8.53125 -8.578125 8.84375 -7.570312 9.46875 -6.75 C 10.09375 -5.9375 10.945312 -5.320312 12.03125 -4.90625 C 13.125 -4.488281 14.382812 -4.28125 15.8125 -4.28125 Z M 15.8125 -4.28125 "/></g></g></g><g fill="#2a2342" fill-opacity="1"><g transform="translate(394.349018, 727.522263)"><g><path d="M 19.03125 -35.265625 L 19.03125 -30.40625 L 0.609375 -30.40625 L 0.609375 -35.265625 Z M 6.09375 -43.90625 L 11.78125 -43.90625 L 11.78125 -9 C 11.78125 -7.488281 12.09375 -6.382812 12.71875 -5.6875 C 13.351562 -5 14.414062 -4.65625 15.90625 -4.65625 C 16.289062 -4.65625 16.765625 -4.6875 17.328125 -4.75 C 17.890625 -4.820312 18.40625 -4.890625 18.875 -4.953125 L 19.796875 -0.15625 C 19.203125 0.0078125 18.535156 0.132812 17.796875 0.21875 C 17.066406 0.300781 16.351562 0.34375 15.65625 0.34375 C 12.601562 0.34375 10.242188 -0.429688 8.578125 -1.984375 C 6.921875 -3.535156 6.09375 -5.726562 6.09375 -8.5625 Z M 6.09375 -43.90625 "/></g></g></g><g fill="#2a2342" fill-opacity="1"><g transform="translate(415.516233, 727.522263)"><g><path d="M 19.03125 -35.265625 L 19.03125 -30.40625 L 0.609375 -30.40625 L 0.609375 -35.265625 Z M 6.09375 -43.90625 L 11.78125 -43.90625 L 11.78125 -9 C 11.78125 -7.488281 12.09375 -6.382812 12.71875 -5.6875 C 13.351562 -5 14.414062 -4.65625 15.90625 -4.65625 C 16.289062 -4.65625 16.765625 -4.6875 17.328125 -4.75 C 17.890625 -4.820312 18.40625 -4.890625 18.875 -4.953125 L 19.796875 -0.15625 C 19.203125 0.0078125 18.535156 0.132812 17.796875 0.21875 C 17.066406 0.300781 16.351562 0.34375 15.65625 0.34375 C 12.601562 0.34375 10.242188 -0.429688 8.578125 -1.984375 C 6.921875 -3.535156 6.09375 -5.726562 6.09375 -8.5625 Z M 6.09375 -43.90625 "/></g></g></g><g fill="#2a2342" fill-opacity="1"><g transform="translate(436.683449, 727.522263)"><g><path d="M 19.578125 0.765625 C 16.171875 0.765625 13.234375 0 10.765625 -1.53125 C 8.296875 -3.0625 6.398438 -5.191406 5.078125 -7.921875 C 3.753906 -10.648438 3.09375 -13.8125 3.09375 -17.40625 C 3.09375 -21 3.75 -24.179688 5.0625 -26.953125 C 6.375 -29.722656 8.226562 -31.882812 10.625 -33.4375 C 13.019531 -34.988281 15.800781 -35.765625 18.96875 -35.765625 C 20.96875 -35.765625 22.894531 -35.425781 24.75 -34.75 C 26.601562 -34.082031 28.265625 -33.03125 29.734375 -31.59375 C 31.203125 -30.164062 32.359375 -28.320312 33.203125 -26.0625 C 34.054688 -23.800781 34.484375 -21.109375 34.484375 -17.984375 L 34.484375 -15.78125 L 6.765625 -15.78125 L 6.765625 -20.5625 L 31.390625 -20.5625 L 28.8125 -18.84375 C 28.8125 -21.164062 28.429688 -23.21875 27.671875 -25 C 26.921875 -26.789062 25.8125 -28.191406 24.34375 -29.203125 C 22.882812 -30.210938 21.09375 -30.71875 18.96875 -30.71875 C 16.863281 -30.71875 15.046875 -30.207031 13.515625 -29.1875 C 11.992188 -28.164062 10.828125 -26.804688 10.015625 -25.109375 C 9.210938 -23.421875 8.8125 -21.566406 8.8125 -19.546875 L 8.8125 -16.546875 C 8.8125 -13.960938 9.253906 -11.753906 10.140625 -9.921875 C 11.023438 -8.097656 12.28125 -6.707031 13.90625 -5.75 C 15.539062 -4.789062 17.441406 -4.3125 19.609375 -4.3125 C 21.054688 -4.3125 22.359375 -4.523438 23.515625 -4.953125 C 24.679688 -5.378906 25.675781 -6.003906 26.5 -6.828125 C 27.332031 -7.660156 27.960938 -8.6875 28.390625 -9.90625 L 33.921875 -8.6875 C 33.390625 -6.832031 32.460938 -5.191406 31.140625 -3.765625 C 29.816406 -2.335938 28.171875 -1.222656 26.203125 -0.421875 C 24.234375 0.367188 22.023438 0.765625 19.578125 0.765625 Z M 19.578125 0.765625 "/></g></g></g></g></g></svg>