<svg xmlns="http://www.w3.org/2000/svg" xmlns:xlink="http://www.w3.org/1999/xlink" width="1920" zoomAndPan="magnify" viewBox="0 0 1440 809.999993" height="1080" preserveAspectRatio="xMidYMid meet" version="1.0"><defs><clipPath id="78f8018ac2"><path d="M 88 166.949219 L 239 166.949219 L 239 339 L 88 339 Z M 88 166.949219 " clip-rule="nonzero"/></clipPath><clipPath id="1fc46f9857"><path d="M 263 166.949219 L 415 166.949219 L 415 339 L 263 339 Z M 263 166.949219 " clip-rule="nonzero"/></clipPath><clipPath id="4cb0296304"><path d="M 263 471 L 415 471 L 415 643.199219 L 263 643.199219 Z M 263 471 " clip-rule="nonzero"/></clipPath><clipPath id="4e88f2f18c"><path d="M 88 471 L 239 471 L 239 643.199219 L 88 643.199219 Z M 88 471 " clip-rule="nonzero"/></clipPath></defs><path fill="#862fff" d="M 163.351562 175.695312 L 229.957031 214.15625 L 229.957031 291.074219 L 163.351562 329.535156 L 96.734375 291.074219 L 96.734375 214.148438 Z M 163.351562 175.695312 " fill-opacity="1" fill-rule="nonzero"/><g clip-path="url(#78f8018ac2)"><path stroke-linecap="butt" transform="matrix(0.812604, 0, 0, 0.812604, 0.00000622222, 166.982942)" fill="none" stroke-linejoin="round" d="M 201.022236 10.72154 L 282.987664 58.051996 L 282.987664 152.708101 L 201.022236 200.038557 L 119.042386 152.708101 L 119.042386 58.042382 Z M 201.022236 10.72154 " stroke="#862fff" stroke-width="21.43" stroke-opacity="1" stroke-miterlimit="4"/></g><path fill="#862fff" d="M 339.246094 175.695312 L 405.863281 214.15625 L 405.863281 291.074219 L 339.246094 329.535156 L 272.636719 291.074219 L 272.636719 214.148438 L 339.246094 175.6875 Z M 339.246094 175.695312 " fill-opacity="1" fill-rule="nonzero"/><g clip-path="url(#1fc46f9857)"><path stroke-linecap="butt" transform="matrix(0.812604, 0, 0, 0.812604, 0.00000622222, 166.982942)" fill="none" stroke-linejoin="round" d="M 417.479995 10.72154 L 499.459845 58.051996 L 499.459845 152.708101 L 417.479995 200.038557 L 335.50976 152.708101 L 335.50976 58.042382 L 417.479995 10.711926 Z M 417.479995 10.72154 " stroke="#862fff" stroke-width="21.43" stroke-opacity="1" stroke-miterlimit="4"/></g><path stroke-linecap="butt" transform="matrix(0.812604, 0, 0, 0.812604, 0.00000622222, 166.982942)" fill-opacity="1" fill="#862fff" fill-rule="nonzero" stroke-linejoin="round" d="M 525.797806 198.250325 L 607.777656 245.580781 L 607.777656 340.241693 L 525.797806 387.572149 L 443.817957 340.241693 L 443.817957 245.580781 Z M 525.797806 198.250325 " stroke="#862fff" stroke-width="21.43" stroke-opacity="1" stroke-miterlimit="4"/><path stroke-linecap="butt" transform="matrix(0.812604, 0, 0, 0.812604, 0.00000622222, 166.982942)" fill-opacity="1" fill="#862fff" fill-rule="nonzero" stroke-linejoin="round" d="M 92.699618 198.250325 L 174.679467 245.580781 L 174.679467 340.241693 L 92.699618 387.572149 L 10.719769 340.241693 L 10.719769 245.580781 Z M 92.699618 198.250325 " stroke="#862fff" stroke-width="21.43" stroke-opacity="1" stroke-miterlimit="4"/><path fill="#862fff" d="M 339.246094 480.46875 L 405.863281 518.929688 L 405.863281 595.851562 L 339.246094 634.3125 L 272.636719 595.851562 L 272.636719 518.929688 Z M 339.246094 480.46875 " fill-opacity="1" fill-rule="nonzero"/><g clip-path="url(#4cb0296304)"><path stroke-linecap="butt" transform="matrix(0.812604, 0, 0, 0.812604, 0.00000622222, 166.982942)" fill="none" stroke-linejoin="round" d="M 417.479995 385.77911 L 499.459845 433.109566 L 499.459845 527.770478 L 417.479995 575.100934 L 335.50976 527.770478 L 335.50976 433.109566 Z M 417.479995 385.77911 " stroke="#862fff" stroke-width="21.43" stroke-opacity="1" stroke-miterlimit="4"/></g><path fill="#862fff" d="M 163.351562 480.46875 L 229.957031 518.929688 L 229.957031 595.851562 L 163.351562 634.3125 L 96.734375 595.851562 L 96.734375 518.929688 Z M 163.351562 480.46875 " fill-opacity="1" fill-rule="nonzero"/><g clip-path="url(#4e88f2f18c)"><path stroke-linecap="butt" transform="matrix(0.812604, 0, 0, 0.812604, 0.00000622222, 166.982942)" fill="none" stroke-linejoin="round" d="M 201.022236 385.77911 L 282.987664 433.109566 L 282.987664 527.770478 L 201.022236 575.100934 L 119.042386 527.770478 L 119.042386 433.109566 Z M 201.022236 385.77911 " stroke="#862fff" stroke-width="21.43" stroke-opacity="1" stroke-miterlimit="4"/></g><path stroke-linecap="butt" transform="matrix(0.812604, 0, 0, 0.812604, 0.00000622222, 166.982942)" fill-opacity="1" fill="#862fff" fill-rule="nonzero" stroke-linejoin="round" d="M 309.248712 198.250325 L 391.228561 245.580781 L 391.228561 340.241693 L 309.248712 387.572149 L 227.268863 340.241693 L 227.268863 245.580781 Z M 309.248712 198.250325 " stroke="#862fff" stroke-width="21.43" stroke-opacity="1" stroke-miterlimit="4"/><path fill="#ffffff" d="M 240.375 387.953125 C 240.726562 388.816406 241.042969 389.683594 241.328125 390.5625 C 241.613281 391.441406 241.863281 392.328125 242.082031 393.21875 C 242.300781 394.113281 242.488281 395.007812 242.644531 395.902344 C 242.796875 396.796875 242.910156 397.6875 243 398.574219 C 243.082031 399.46875 243.140625 400.347656 243.15625 401.222656 C 243.171875 402.101562 243.15625 402.964844 243.097656 403.816406 C 243.042969 404.667969 242.953125 405.507812 242.832031 406.328125 C 242.707031 407.15625 242.554688 407.960938 242.359375 408.742188 C 242.164062 409.519531 241.945312 410.285156 241.683594 411.023438 C 241.433594 411.765625 241.140625 412.472656 240.824219 413.160156 C 240.507812 413.851562 240.15625 414.503906 239.773438 415.128906 C 239.394531 415.753906 238.988281 416.347656 238.546875 416.90625 C 238.109375 417.46875 237.644531 417.988281 237.160156 418.476562 C 236.671875 418.964844 236.160156 419.417969 235.613281 419.824219 C 235.078125 420.238281 234.519531 420.613281 233.941406 420.945312 C 233.363281 421.28125 232.761719 421.570312 232.144531 421.816406 C 231.527344 422.058594 230.894531 422.269531 230.25 422.441406 C 229.601562 422.605469 228.941406 422.726562 228.269531 422.800781 C 227.59375 422.871094 226.910156 422.914062 226.222656 422.894531 C 225.53125 422.886719 224.832031 422.832031 224.132812 422.734375 C 223.433594 422.628906 222.726562 422.488281 222.019531 422.304688 C 221.3125 422.117188 220.605469 421.890625 219.898438 421.621094 C 219.191406 421.351562 218.492188 421.035156 217.792969 420.6875 C 217.09375 420.335938 216.40625 419.9375 215.722656 419.507812 C 215.039062 419.078125 214.363281 418.605469 213.714844 418.101562 C 213.058594 417.589844 212.40625 417.054688 211.773438 416.476562 C 211.140625 415.898438 210.53125 415.289062 209.929688 414.65625 C 209.328125 414.015625 208.75 413.347656 208.199219 412.648438 C 207.636719 411.949219 207.109375 411.226562 206.597656 410.480469 C 206.085938 409.730469 205.597656 408.953125 205.132812 408.164062 C 204.671875 407.367188 204.238281 406.554688 203.832031 405.726562 C 203.425781 404.898438 203.054688 404.050781 202.703125 403.191406 C 202.355469 402.328125 202.039062 401.460938 201.753906 400.582031 C 201.46875 399.703125 201.21875 398.820312 200.996094 397.925781 C 200.777344 397.03125 200.589844 396.136719 200.4375 395.242188 C 200.28125 394.351562 200.160156 393.457031 200.078125 392.5625 C 200 391.667969 199.949219 390.789062 199.933594 389.914062 C 199.917969 389.035156 199.933594 388.175781 199.988281 387.320312 C 200.039062 386.46875 200.128906 385.628906 200.25 384.808594 C 200.371094 383.988281 200.535156 383.183594 200.722656 382.40625 C 200.910156 381.625 201.136719 380.859375 201.386719 380.121094 C 201.648438 379.382812 201.933594 378.667969 202.257812 377.984375 C 202.574219 377.300781 202.921875 376.644531 203.304688 376.015625 C 203.6875 375.390625 204.09375 374.804688 204.53125 374.246094 C 204.972656 373.683594 205.425781 373.164062 205.921875 372.675781 C 206.410156 372.191406 206.921875 371.734375 207.464844 371.328125 C 208.003906 370.914062 208.5625 370.539062 209.140625 370.207031 C 209.71875 369.875 210.320312 369.582031 210.9375 369.335938 C 211.554688 369.085938 212.1875 368.882812 212.835938 368.710938 C 213.488281 368.542969 214.144531 368.425781 214.820312 368.355469 C 215.496094 368.28125 216.175781 368.242188 216.867188 368.25 C 217.558594 368.265625 218.257812 368.3125 218.957031 368.410156 C 219.664062 368.515625 220.363281 368.65625 221.070312 368.84375 C 221.785156 369.027344 222.484375 369.257812 223.191406 369.523438 C 223.898438 369.792969 224.597656 370.109375 225.292969 370.460938 C 225.992188 370.808594 226.675781 371.207031 227.367188 371.636719 C 228.050781 372.066406 228.714844 372.53125 229.375 373.042969 C 230.03125 373.554688 230.675781 374.089844 231.316406 374.667969 C 231.949219 375.246094 232.558594 375.847656 233.160156 376.488281 C 233.753906 377.128906 234.332031 377.796875 234.890625 378.496094 C 235.453125 379.195312 235.980469 379.925781 236.492188 380.671875 C 237.003906 381.421875 237.484375 382.191406 237.945312 382.988281 C 238.410156 383.785156 238.839844 384.597656 239.246094 385.425781 C 239.644531 386.257812 240.027344 387.101562 240.375 387.960938 Z M 240.375 387.953125 " fill-opacity="1" fill-rule="nonzero"/><path fill="#ffffff" d="M 299.882812 403.175781 C 299.535156 404.035156 299.160156 404.882812 298.753906 405.710938 C 298.347656 406.539062 297.917969 407.351562 297.453125 408.148438 C 296.992188 408.9375 296.503906 409.714844 295.992188 410.464844 C 295.480469 411.210938 294.941406 411.933594 294.390625 412.632812 C 293.835938 413.332031 293.261719 414.007812 292.660156 414.640625 C 292.066406 415.28125 291.449219 415.890625 290.816406 416.460938 C 290.179688 417.03125 289.539062 417.582031 288.871094 418.085938 C 288.214844 418.589844 287.539062 419.0625 286.867188 419.492188 C 286.191406 419.921875 285.492188 420.320312 284.792969 420.671875 C 284.09375 421.019531 283.394531 421.335938 282.6875 421.605469 C 281.980469 421.871094 281.273438 422.101562 280.566406 422.285156 C 279.859375 422.472656 279.152344 422.613281 278.457031 422.71875 C 277.757812 422.816406 277.058594 422.871094 276.367188 422.878906 C 275.675781 422.894531 274.992188 422.855469 274.320312 422.78125 C 273.644531 422.710938 272.988281 422.585938 272.335938 422.425781 C 271.6875 422.261719 271.058594 422.050781 270.441406 421.800781 C 269.824219 421.546875 269.230469 421.261719 268.648438 420.929688 C 268.070312 420.597656 267.5 420.230469 266.972656 419.808594 C 266.4375 419.394531 265.917969 418.945312 265.429688 418.460938 C 264.941406 417.972656 264.46875 417.453125 264.039062 416.890625 C 263.609375 416.332031 263.195312 415.738281 262.8125 415.113281 C 262.429688 414.484375 262.082031 413.835938 261.765625 413.144531 C 261.4375 412.460938 261.15625 411.746094 260.902344 411.007812 C 260.644531 410.269531 260.421875 409.511719 260.226562 408.726562 C 260.035156 407.9375 259.878906 407.140625 259.757812 406.3125 C 259.636719 405.492188 259.546875 404.652344 259.488281 403.800781 C 259.433594 402.945312 259.414062 402.085938 259.433594 401.207031 C 259.449219 400.332031 259.496094 399.453125 259.585938 398.558594 C 259.667969 397.671875 259.789062 396.78125 259.945312 395.886719 C 260.097656 394.992188 260.285156 394.097656 260.503906 393.203125 C 260.722656 392.308594 260.976562 391.425781 261.261719 390.546875 C 261.546875 389.667969 261.863281 388.800781 262.210938 387.9375 C 262.5625 387.078125 262.941406 386.230469 263.339844 385.402344 C 263.746094 384.574219 264.1875 383.761719 264.640625 382.964844 C 265.097656 382.167969 265.582031 381.398438 266.09375 380.648438 C 266.609375 379.902344 267.144531 379.171875 267.695312 378.472656 C 268.25 377.773438 268.835938 377.105469 269.425781 376.464844 C 270.019531 375.824219 270.636719 375.210938 271.273438 374.644531 C 271.90625 374.066406 272.546875 373.523438 273.214844 373.019531 C 273.878906 372.515625 274.546875 372.042969 275.222656 371.613281 C 275.902344 371.183594 276.59375 370.785156 277.292969 370.433594 C 277.992188 370.085938 278.691406 369.769531 279.398438 369.5 C 280.105469 369.230469 280.8125 369.003906 281.519531 368.816406 C 282.226562 368.628906 282.925781 368.492188 283.632812 368.386719 C 284.332031 368.289062 285.027344 368.234375 285.71875 368.222656 C 286.410156 368.214844 287.09375 368.25 287.769531 368.332031 C 288.441406 368.410156 289.101562 368.523438 289.75 368.6875 C 290.402344 368.851562 291.035156 369.0625 291.652344 369.3125 C 292.269531 369.558594 292.863281 369.851562 293.449219 370.183594 C 294.023438 370.515625 294.585938 370.882812 295.121094 371.304688 C 295.65625 371.71875 296.171875 372.164062 296.664062 372.652344 C 297.152344 373.140625 297.617188 373.660156 298.054688 374.222656 C 298.492188 374.78125 298.898438 375.375 299.28125 375.992188 C 299.664062 376.617188 300.011719 377.277344 300.332031 377.960938 C 300.65625 378.640625 300.941406 379.347656 301.199219 380.097656 C 301.453125 380.835938 301.679688 381.59375 301.867188 382.378906 C 302.054688 383.167969 302.214844 383.964844 302.335938 384.785156 C 302.460938 385.613281 302.550781 386.453125 302.597656 387.296875 C 302.65625 388.148438 302.671875 389.011719 302.65625 389.886719 C 302.636719 390.765625 302.589844 391.644531 302.507812 392.539062 C 302.425781 393.429688 302.304688 394.316406 302.152344 395.21875 C 301.996094 396.113281 301.808594 397.007812 301.589844 397.902344 C 301.371094 398.785156 301.117188 399.679688 300.835938 400.558594 C 300.550781 401.4375 300.234375 402.3125 299.882812 403.167969 Z M 299.882812 403.175781 " fill-opacity="1" fill-rule="nonzero"/><path fill="#ffffff" d="M 272.335938 423.863281 C 272.335938 425.074219 272.304688 426.285156 272.230469 427.488281 C 272.15625 428.691406 272.058594 429.894531 271.929688 431.078125 C 271.792969 432.265625 271.621094 433.445312 271.425781 434.605469 C 271.230469 435.769531 270.996094 436.90625 270.734375 438.019531 C 270.46875 439.140625 270.175781 440.238281 269.851562 441.300781 C 269.523438 442.375 269.175781 443.40625 268.785156 444.414062 C 268.402344 445.421875 267.996094 446.398438 267.558594 447.332031 C 267.121094 448.273438 266.65625 449.167969 266.167969 450.019531 C 265.679688 450.882812 265.167969 451.695312 264.632812 452.46875 C 264.097656 453.230469 263.550781 453.953125 262.976562 454.628906 C 262.40625 455.304688 261.8125 455.921875 261.203125 456.496094 C 260.59375 457.066406 259.96875 457.585938 259.335938 458.050781 C 258.691406 458.511719 258.050781 458.917969 257.382812 459.277344 C 256.726562 459.625 256.058594 459.925781 255.386719 460.15625 C 254.710938 460.390625 254.027344 460.570312 253.335938 460.691406 C 252.648438 460.8125 251.964844 460.871094 251.273438 460.871094 C 250.582031 460.871094 249.898438 460.8125 249.210938 460.691406 C 248.519531 460.570312 247.84375 460.398438 247.160156 460.15625 C 246.488281 459.917969 245.8125 459.625 245.164062 459.277344 C 244.503906 458.925781 243.855469 458.511719 243.210938 458.050781 C 242.578125 457.585938 241.953125 457.066406 241.34375 456.496094 C 240.734375 455.929688 240.148438 455.304688 239.570312 454.628906 C 238.996094 453.953125 238.441406 453.230469 237.914062 452.46875 C 237.378906 451.695312 236.867188 450.882812 236.378906 450.019531 C 235.890625 449.167969 235.429688 448.265625 234.988281 447.332031 C 234.550781 446.398438 234.144531 445.421875 233.761719 444.414062 C 233.378906 443.40625 233.023438 442.367188 232.699219 441.300781 C 232.371094 440.238281 232.078125 439.140625 231.8125 438.019531 C 231.550781 436.898438 231.316406 435.761719 231.121094 434.605469 C 230.925781 433.445312 230.753906 432.265625 230.617188 431.078125 C 230.488281 429.894531 230.382812 428.691406 230.316406 427.488281 C 230.25 426.285156 230.210938 425.074219 230.210938 423.863281 C 230.210938 422.652344 230.242188 421.441406 230.316406 420.238281 C 230.390625 419.035156 230.488281 417.832031 230.617188 416.648438 C 230.753906 415.460938 230.925781 414.28125 231.121094 413.128906 C 231.316406 411.976562 231.550781 410.828125 231.8125 409.707031 C 232.078125 408.585938 232.371094 407.496094 232.699219 406.425781 C 233.023438 405.359375 233.371094 404.320312 233.761719 403.3125 C 234.144531 402.304688 234.550781 401.328125 234.988281 400.394531 C 235.429688 399.460938 235.890625 398.558594 236.378906 397.707031 C 236.867188 396.851562 237.378906 396.03125 237.914062 395.269531 C 238.449219 394.496094 238.996094 393.78125 239.570312 393.105469 C 240.140625 392.433594 240.734375 391.804688 241.34375 391.238281 C 241.953125 390.667969 242.578125 390.148438 243.210938 389.683594 C 243.855469 389.222656 244.496094 388.816406 245.164062 388.457031 C 245.820312 388.109375 246.488281 387.816406 247.160156 387.582031 C 247.835938 387.34375 248.519531 387.167969 249.210938 387.042969 C 249.898438 386.921875 250.582031 386.867188 251.273438 386.867188 C 251.964844 386.867188 252.648438 386.921875 253.335938 387.042969 C 254.027344 387.167969 254.703125 387.335938 255.386719 387.582031 C 256.066406 387.824219 256.734375 388.109375 257.382812 388.457031 C 258.042969 388.816406 258.691406 389.222656 259.335938 389.683594 C 259.96875 390.148438 260.59375 390.660156 261.203125 391.238281 C 261.804688 391.804688 262.398438 392.433594 262.976562 393.105469 C 263.550781 393.78125 264.105469 394.496094 264.632812 395.269531 C 265.167969 396.03125 265.679688 396.851562 266.167969 397.707031 C 266.65625 398.566406 267.121094 399.460938 267.558594 400.394531 C 267.996094 401.328125 268.402344 402.304688 268.785156 403.3125 C 269.167969 404.320312 269.523438 405.359375 269.851562 406.425781 C 270.175781 407.496094 270.46875 408.585938 270.734375 409.707031 C 270.996094 410.828125 271.230469 411.96875 271.425781 413.128906 C 271.621094 414.289062 271.792969 415.460938 271.929688 416.648438 C 272.058594 417.832031 272.164062 419.035156 272.230469 420.238281 C 272.296875 421.441406 272.335938 422.652344 272.335938 423.863281 Z M 272.335938 423.863281 " fill-opacity="1" fill-rule="nonzero"/><path fill="#ffffff" d="M 263.992188 373.800781 C 263.992188 374.636719 263.910156 375.457031 263.746094 376.277344 C 263.585938 377.097656 263.339844 377.886719 263.023438 378.660156 C 262.707031 379.429688 262.308594 380.160156 261.855469 380.851562 C 261.390625 381.542969 260.863281 382.183594 260.277344 382.769531 C 259.691406 383.355469 259.042969 383.890625 258.351562 384.355469 C 257.660156 384.816406 256.921875 385.207031 256.15625 385.523438 C 255.386719 385.839844 254.597656 386.085938 253.777344 386.246094 C 252.957031 386.410156 252.136719 386.492188 251.296875 386.492188 C 250.460938 386.492188 249.640625 386.410156 248.820312 386.246094 C 248 386.085938 247.210938 385.839844 246.4375 385.523438 C 245.667969 385.199219 244.933594 384.808594 244.246094 384.355469 C 243.554688 383.890625 242.910156 383.363281 242.320312 382.769531 C 241.726562 382.175781 241.207031 381.542969 240.742188 380.851562 C 240.277344 380.160156 239.890625 379.421875 239.570312 378.660156 C 239.253906 377.894531 239.011719 377.089844 238.847656 376.277344 C 238.6875 375.457031 238.605469 374.636719 238.605469 373.800781 C 238.605469 372.960938 238.6875 372.140625 238.847656 371.320312 C 239.011719 370.5 239.253906 369.710938 239.570312 368.941406 C 239.890625 368.167969 240.289062 367.445312 240.742188 366.746094 C 241.207031 366.054688 241.734375 365.40625 242.320312 364.820312 C 242.910156 364.234375 243.554688 363.699219 244.246094 363.242188 C 244.933594 362.78125 245.675781 362.390625 246.4375 362.074219 C 247.210938 361.746094 248 361.511719 248.820312 361.351562 C 249.640625 361.1875 250.460938 361.105469 251.296875 361.105469 C 252.136719 361.105469 252.957031 361.1875 253.777344 361.351562 C 254.597656 361.511719 255.386719 361.746094 256.15625 362.074219 C 256.929688 362.390625 257.660156 362.78125 258.351562 363.242188 C 259.042969 363.707031 259.683594 364.234375 260.277344 364.820312 C 260.863281 365.40625 261.390625 366.054688 261.855469 366.746094 C 262.316406 367.4375 262.707031 368.167969 263.023438 368.941406 C 263.339844 369.710938 263.585938 370.507812 263.746094 371.320312 C 263.910156 372.140625 263.992188 372.96875 263.992188 373.800781 Z M 263.992188 373.800781 " fill-opacity="1" fill-rule="nonzero"/><path fill="#862fff" d="M 551.78125 474.910156 L 551.78125 273.914062 L 599.539062 273.914062 L 599.539062 435.523438 L 684.660156 435.523438 L 684.660156 474.917969 L 551.78125 474.917969 Z M 551.78125 474.910156 " fill-opacity="1" fill-rule="nonzero"/><path fill="#862fff" d="M 792.589844 477.601562 C 775.589844 477.601562 760.753906 474.546875 748.066406 468.441406 C 735.382812 462.324219 725.5 453.742188 718.441406 442.675781 C 711.386719 431.597656 707.859375 418.613281 707.859375 403.6875 L 707.859375 273.90625 L 755.347656 273.90625 L 755.347656 399.777344 C 755.347656 406.789062 756.925781 413.03125 760.070312 418.515625 C 763.214844 424 767.578125 428.316406 773.152344 431.46875 C 778.726562 434.621094 785.203125 436.191406 792.589844 436.191406 C 799.976562 436.191406 806.566406 434.613281 812.140625 431.46875 C 817.714844 428.316406 822.054688 424.027344 825.160156 418.589844 C 828.261719 413.152344 829.816406 406.878906 829.816406 399.777344 L 829.816406 273.90625 L 877.304688 273.90625 L 877.304688 403.6875 C 877.304688 418.605469 873.769531 431.597656 866.707031 442.675781 C 859.652344 453.734375 849.78125 462.324219 837.097656 468.441406 C 824.417969 474.554688 809.589844 477.601562 792.589844 477.601562 Z M 792.589844 477.601562 " fill-opacity="1" fill-rule="nonzero"/><path fill="#862fff" d="M 907.507812 474.910156 L 907.507812 273.914062 L 981.03125 273.914062 L 1006.800781 352.296875 C 1008.246094 357.058594 1009.90625 363.265625 1011.796875 370.921875 C 1013.683594 378.570312 1015.570312 386.742188 1017.453125 395.472656 C 1019.347656 404.199219 1021.125 412.585938 1022.785156 420.628906 C 1024.449219 428.683594 1025.78125 435.53125 1026.765625 441.195312 L 1016.933594 441.195312 C 1018.007812 435.53125 1019.324219 428.675781 1020.898438 420.628906 C 1022.476562 412.585938 1024.230469 404.222656 1026.164062 395.535156 C 1028.105469 386.859375 1029.992188 378.699219 1031.835938 371.050781 C 1033.691406 363.398438 1035.332031 357.148438 1036.761719 352.296875 L 1062.121094 273.914062 L 1135.914062 273.914062 L 1135.914062 474.910156 L 1088.019531 474.910156 L 1088.019531 388.164062 C 1088.019531 383.671875 1088.109375 377.953125 1088.289062 370.980469 C 1088.46875 364.007812 1088.671875 356.425781 1088.898438 348.242188 C 1089.125 340.058594 1089.34375 331.8125 1089.574219 323.492188 C 1089.800781 315.175781 1089.914062 307.417969 1089.914062 300.210938 L 1093.417969 300.210938 C 1091.703125 308.035156 1089.785156 316.167969 1087.679688 324.621094 C 1085.566406 333.078125 1083.429688 341.3125 1081.257812 349.324219 C 1079.097656 357.328125 1077.058594 364.707031 1075.132812 371.449219 C 1073.199219 378.1875 1071.558594 383.761719 1070.207031 388.15625 L 1041.613281 474.902344 L 1001.949219 474.902344 L 972.816406 388.15625 C 971.46875 383.753906 969.8125 378.210938 967.820312 371.515625 C 965.84375 364.8125 963.773438 357.457031 961.605469 349.453125 C 959.441406 341.441406 957.289062 333.210938 955.136719 324.75 C 952.972656 316.300781 950.957031 308.117188 949.074219 300.203125 L 953.257812 300.203125 C 953.257812 307.222656 953.371094 314.894531 953.597656 323.207031 C 953.828125 331.527344 954.046875 339.800781 954.257812 348.023438 C 954.484375 356.253906 954.6875 363.878906 954.867188 370.898438 C 955.046875 377.910156 955.136719 383.65625 955.136719 388.148438 L 955.136719 474.894531 L 907.515625 474.894531 Z M 907.507812 474.910156 " fill-opacity="1" fill-rule="nonzero"/><path fill="#862fff" d="M 1165.972656 273.914062 L 1213.730469 273.914062 L 1213.730469 474.910156 L 1165.972656 474.910156 Z M 1165.972656 273.914062 " fill-opacity="1" fill-rule="nonzero"/><path fill="#862fff" d="M 1243.941406 474.910156 L 1243.941406 273.914062 L 1295.746094 273.914062 L 1352.003906 364.84375 C 1355.328125 370.238281 1358.699219 376.066406 1362.113281 382.316406 C 1365.53125 388.570312 1368.953125 395.445312 1372.375 402.957031 C 1375.796875 410.464844 1379.21875 418.800781 1382.636719 427.976562 L 1377.917969 430.941406 C 1377.371094 423.660156 1376.851562 415.566406 1376.355469 406.660156 C 1375.859375 397.753906 1375.429688 389.125 1375.074219 380.753906 C 1374.722656 372.394531 1374.542969 365.429688 1374.542969 359.847656 L 1374.542969 273.914062 L 1423.234375 273.914062 L 1423.234375 474.910156 L 1371.292969 474.910156 L 1319.644531 391.554688 C 1315.5 384.710938 1311.542969 377.902344 1307.757812 371.117188 C 1303.984375 364.324219 1300.140625 356.90625 1296.226562 348.851562 C 1292.316406 340.789062 1287.886719 331.601562 1282.941406 321.257812 L 1289.285156 320.441406 C 1289.921875 329.984375 1290.496094 339.296875 1291.035156 348.378906 C 1291.578125 357.464844 1291.984375 365.738281 1292.253906 373.199219 C 1292.519531 380.65625 1292.660156 386.777344 1292.660156 391.546875 L 1292.660156 474.902344 L 1243.949219 474.902344 Z M 1243.941406 474.910156 " fill-opacity="1" fill-rule="nonzero"/><path fill="#862fff" d="M 574 579.679688 C 571.1875 579.679688 568.855469 579.210938 566.988281 578.273438 C 565.125 577.324219 563.621094 576.203125 562.5 574.902344 C 561.378906 573.609375 560.492188 572.40625 559.828125 571.308594 L 559.136719 571.308594 L 559.136719 578.671875 L 551.667969 578.671875 L 551.667969 514.101562 L 559.390625 514.101562 L 559.390625 538.382812 L 559.859375 538.382812 C 560.503906 537.3125 561.371094 536.140625 562.46875 534.882812 C 563.558594 533.605469 565.027344 532.5 566.855469 531.566406 C 568.691406 530.617188 571.058594 530.144531 573.949219 530.144531 C 577.988281 530.144531 581.53125 531.160156 584.578125 533.191406 C 587.636719 535.214844 590.03125 538.074219 591.753906 541.773438 C 593.492188 545.460938 594.363281 549.824219 594.363281 554.839844 C 594.363281 559.851562 593.503906 564.28125 591.769531 567.996094 C 590.054688 571.707031 587.675781 574.585938 584.628906 576.632812 C 581.582031 578.664062 578.039062 579.679688 574 579.679688 Z M 572.828125 572.789062 C 575.777344 572.789062 578.265625 572.007812 580.296875 570.449219 C 582.335938 568.878906 583.890625 566.742188 584.9375 564.03125 C 585.984375 561.316406 586.511719 558.234375 586.511719 554.804688 C 586.511719 551.378906 585.992188 548.3125 584.953125 545.648438 C 583.914062 542.976562 582.371094 540.871094 580.328125 539.335938 C 578.296875 537.796875 575.796875 537.035156 572.828125 537.035156 C 569.863281 537.035156 567.386719 537.78125 565.363281 539.269531 C 563.339844 540.757812 561.792969 542.835938 560.738281 545.503906 C 559.691406 548.160156 559.160156 551.253906 559.160156 554.816406 C 559.160156 558.375 559.691406 561.496094 560.738281 564.191406 C 561.792969 566.890625 563.355469 569.003906 565.410156 570.523438 C 567.464844 572.035156 569.9375 572.789062 572.828125 572.789062 Z M 572.828125 572.789062 " fill-opacity="1" fill-rule="nonzero"/><path fill="#862fff" d="M 604.585938 596.355469 L 606.089844 589.652344 L 607.746094 589.820312 C 609.191406 590.136719 610.5 590.179688 611.671875 589.945312 C 612.859375 589.714844 613.914062 589.082031 614.855469 588.050781 C 615.808594 587.011719 616.636719 585.449219 617.359375 583.363281 L 619 578.828125 L 600.667969 530.851562 L 609.078125 530.851562 L 619.300781 559.074219 C 620.34375 561.875 621.234375 564.671875 621.976562 567.449219 C 622.730469 570.238281 623.519531 572.953125 624.332031 575.578125 L 621.691406 575.578125 C 622.488281 572.953125 623.277344 570.238281 624.046875 567.449219 C 624.8125 564.664062 625.707031 561.875 626.722656 559.074219 L 636.984375 530.851562 L 645.3125 530.851562 L 624.082031 586.1875 C 623.152344 588.636719 622.015625 590.667969 620.675781 592.285156 C 619.328125 593.910156 617.765625 595.113281 615.988281 595.890625 C 614.214844 596.671875 612.214844 597.0625 609.988281 597.0625 C 608.746094 597.0625 607.640625 596.980469 606.691406 596.828125 C 605.738281 596.664062 605.03125 596.507812 604.578125 596.371094 Z M 604.585938 596.355469 " fill-opacity="1" fill-rule="nonzero"/><path fill="#862fff" d="M 702.78125 558.480469 L 711.363281 558.480469 L 718.554688 567.929688 L 720.367188 570.449219 L 731.117188 584.734375 L 722.535156 584.734375 L 715.523438 575.285156 L 713.695312 572.863281 L 702.773438 558.472656 Z M 705.585938 579.589844 C 700.042969 579.589844 695.09375 578.234375 690.753906 575.527344 C 686.40625 572.8125 682.984375 568.96875 680.492188 563.996094 C 678.003906 559.015625 676.769531 553.171875 676.769531 546.445312 C 676.769531 539.714844 678.011719 533.824219 680.492188 528.851562 C 682.984375 523.871094 686.40625 520.027344 690.753906 517.289062 C 695.09375 514.558594 700.042969 513.191406 705.585938 513.191406 C 711.125 513.191406 716.109375 514.558594 720.429688 517.289062 C 724.753906 520.019531 728.160156 523.871094 730.636719 528.851562 C 733.117188 533.816406 734.359375 539.683594 734.359375 546.445312 C 734.359375 553.207031 733.117188 559.023438 730.636719 563.996094 C 728.152344 568.960938 724.753906 572.804688 720.429688 575.527344 C 716.109375 578.234375 711.160156 579.589844 705.585938 579.589844 Z M 705.585938 572.042969 C 709.453125 572.042969 712.953125 571.058594 716.097656 569.09375 C 719.234375 567.125 721.738281 564.25 723.601562 560.4375 C 725.460938 556.625 726.394531 551.953125 726.394531 546.4375 C 726.394531 540.917969 725.460938 536.199219 723.601562 532.371094 C 721.738281 528.542969 719.234375 525.648438 716.097656 523.683594 C 712.960938 521.71875 709.453125 520.734375 705.585938 520.734375 C 701.714844 520.734375 698.207031 521.726562 695.054688 523.714844 C 691.898438 525.691406 689.398438 528.582031 687.535156 532.402344 C 685.675781 536.207031 684.742188 540.886719 684.742188 546.4375 C 684.742188 551.988281 685.675781 556.617188 687.535156 560.421875 C 689.398438 564.214844 691.910156 567.101562 695.054688 569.074219 C 698.207031 571.050781 701.707031 572.042969 705.585938 572.042969 Z M 705.585938 572.042969 " fill-opacity="1" fill-rule="nonzero"/><path fill="#862fff" d="M 745.890625 514.109375 L 753.609375 514.109375 L 753.609375 578.679688 L 745.890625 578.679688 Z M 745.890625 514.109375 " fill-opacity="1" fill-rule="nonzero"/><path fill="#862fff" d="M 780.351562 579.710938 C 777.28125 579.710938 774.507812 579.152344 772.039062 578.039062 C 769.578125 576.910156 767.609375 575.25 766.148438 573.058594 C 764.691406 570.855469 763.960938 568.183594 763.960938 565.027344 C 763.960938 562.28125 764.507812 560.0625 765.585938 558.359375 C 766.667969 556.660156 768.113281 555.300781 769.917969 554.3125 C 771.722656 553.3125 773.730469 552.5625 775.949219 552.074219 C 778.15625 551.582031 780.382812 551.191406 782.636719 550.890625 C 785.554688 550.515625 787.902344 550.230469 789.679688 550.027344 C 791.460938 549.824219 792.777344 549.484375 793.621094 549.011719 C 794.476562 548.542969 794.90625 547.710938 794.90625 546.527344 L 794.90625 546.21875 C 794.90625 544.273438 794.523438 542.617188 793.753906 541.234375 C 792.980469 539.847656 791.851562 538.789062 790.347656 538.050781 C 788.84375 537.304688 786.984375 536.929688 784.757812 536.929688 C 782.53125 536.929688 780.515625 537.285156 778.882812 537.992188 C 777.238281 538.707031 775.90625 539.617188 774.882812 540.742188 C 773.867188 541.84375 773.152344 543.023438 772.746094 544.257812 L 765.246094 542.308594 C 766.230469 539.390625 767.707031 537.042969 769.699219 535.261719 C 771.699219 533.484375 773.988281 532.175781 776.574219 531.355469 C 779.15625 530.535156 781.824219 530.121094 784.578125 530.121094 C 786.414062 530.121094 788.371094 530.363281 790.453125 530.851562 C 792.542969 531.320312 794.5 532.152344 796.328125 533.335938 C 798.164062 534.523438 799.660156 536.207031 800.8125 538.382812 C 801.976562 540.5625 802.5625 543.375 802.5625 546.820312 L 802.5625 578.664062 L 794.980469 578.664062 L 794.980469 572.082031 L 794.539062 572.082031 C 793.996094 573.210938 793.132812 574.367188 791.949219 575.550781 C 790.761719 576.738281 789.21875 577.730469 787.308594 578.519531 C 785.398438 579.304688 783.074219 579.703125 780.335938 579.703125 Z M 781.605469 572.871094 C 784.519531 572.871094 786.964844 572.316406 788.933594 571.214844 C 790.898438 570.089844 792.378906 568.644531 793.386719 566.867188 C 794.402344 565.070312 794.914062 563.183594 794.914062 561.210938 L 794.914062 554.726562 C 794.597656 555.066406 793.9375 555.382812 792.929688 555.675781 C 791.941406 555.960938 790.777344 556.21875 789.460938 556.457031 C 788.152344 556.683594 786.851562 556.878906 785.570312 557.050781 C 784.285156 557.210938 783.1875 557.34375 782.300781 557.457031 C 780.449219 557.683594 778.710938 558.082031 777.085938 558.640625 C 775.46875 559.210938 774.175781 560.023438 773.191406 561.097656 C 772.210938 562.167969 771.722656 563.613281 771.722656 565.425781 C 771.722656 567.042969 772.144531 568.410156 772.988281 569.523438 C 773.84375 570.628906 775.003906 571.464844 776.476562 572.027344 C 777.953125 572.59375 779.660156 572.871094 781.605469 572.871094 Z M 781.605469 572.871094 " fill-opacity="1" fill-rule="nonzero"/><path fill="#862fff" d="M 834.960938 530.835938 L 834.960938 537.417969 L 809.957031 537.417969 L 809.957031 530.835938 Z M 817.398438 519.109375 L 825.101562 519.109375 L 825.101562 566.460938 C 825.101562 568.515625 825.523438 570.011719 826.371094 570.945312 C 827.222656 571.886719 828.667969 572.351562 830.699219 572.351562 C 831.222656 572.351562 831.855469 572.308594 832.609375 572.230469 C 833.375 572.140625 834.082031 572.050781 834.722656 571.960938 L 835.976562 578.460938 C 835.164062 578.695312 834.261719 578.875 833.269531 578.988281 C 832.277344 579.101562 831.292969 579.160156 830.34375 579.160156 C 826.214844 579.160156 823.015625 578.105469 820.761719 575.992188 C 818.511719 573.886719 817.390625 570.902344 817.390625 567.070312 L 817.390625 519.109375 Z M 817.398438 519.109375 " fill-opacity="1" fill-rule="nonzero"/><path fill="#862fff" d="M 863.683594 530.835938 L 863.683594 537.417969 L 838.679688 537.417969 L 838.679688 530.835938 Z M 846.132812 519.109375 L 853.835938 519.109375 L 853.835938 566.460938 C 853.835938 568.515625 854.257812 570.011719 855.105469 570.945312 C 855.957031 571.886719 857.402344 572.351562 859.433594 572.351562 C 859.953125 572.351562 860.589844 572.308594 861.34375 572.230469 C 862.109375 572.140625 862.816406 572.050781 863.457031 571.960938 L 864.707031 578.460938 C 863.894531 578.695312 862.992188 578.875 862.003906 578.988281 C 861.011719 579.101562 860.027344 579.160156 859.078125 579.160156 C 854.949219 579.160156 851.746094 578.105469 849.496094 575.992188 C 847.246094 573.886719 846.125 570.902344 846.125 567.070312 L 846.125 519.109375 Z M 846.132812 519.109375 " fill-opacity="1" fill-rule="nonzero"/><path fill="#862fff" d="M 893.140625 579.710938 C 888.511719 579.710938 884.527344 578.671875 881.171875 576.601562 C 877.832031 574.527344 875.265625 571.644531 873.46875 567.945312 C 871.671875 564.25 870.777344 559.949219 870.777344 555.066406 C 870.777344 550.183594 871.664062 545.867188 873.4375 542.113281 C 875.214844 538.351562 877.734375 535.425781 880.984375 533.3125 C 884.234375 531.207031 888.015625 530.144531 892.3125 530.144531 C 895.027344 530.144531 897.644531 530.597656 900.15625 531.515625 C 902.664062 532.4375 904.933594 533.867188 906.921875 535.816406 C 908.921875 537.757812 910.5 540.261719 911.644531 543.332031 C 912.796875 546.394531 913.375 550.042969 913.375 554.285156 L 913.375 557.285156 L 875.777344 557.285156 L 875.777344 550.785156 L 909.175781 550.785156 L 905.671875 553.125 C 905.671875 549.972656 905.152344 547.191406 904.128906 544.761719 C 903.097656 542.339844 901.59375 540.441406 899.609375 539.074219 C 897.636719 537.703125 895.199219 537.011719 892.3125 537.011719 C 889.429688 537.011719 887 537.703125 884.933594 539.089844 C 882.871094 540.472656 881.285156 542.308594 880.179688 544.609375 C 879.082031 546.898438 878.539062 549.425781 878.539062 552.171875 L 878.539062 556.238281 C 878.539062 559.738281 879.132812 562.730469 880.335938 565.207031 C 881.539062 567.695312 883.253906 569.585938 885.460938 570.878906 C 887.671875 572.179688 890.257812 572.832031 893.199219 572.832031 C 895.164062 572.832031 896.929688 572.546875 898.496094 571.96875 C 900.074219 571.390625 901.421875 570.539062 902.542969 569.410156 C 903.671875 568.28125 904.527344 566.898438 905.101562 565.265625 L 912.601562 566.90625 C 911.878906 569.410156 910.621094 571.636719 908.824219 573.578125 C 907.039062 575.511719 904.8125 577.015625 902.136719 578.097656 C 899.464844 579.175781 896.464844 579.722656 893.148438 579.722656 Z M 893.140625 579.710938 " fill-opacity="1" fill-rule="nonzero"/></svg>